<svg xmlns="http://www.w3.org/2000/svg" width="24" height="29.474" viewBox="0 0 24 29.474">
  <path id="Brand_Logos" data-name="Brand Logos" d="M23.9,17.658a6.665,6.665,0,0,1,3.186-5.607A6.885,6.885,0,0,0,21.7,9.127c-2.3-.233-4.48,1.351-5.643,1.351S13.092,9.161,11.19,9.2a7.215,7.215,0,0,0-6.1,3.7C2.492,17.4,4.427,24.081,6.958,27.74c1.238,1.789,2.716,3.8,4.654,3.731,1.869-.074,2.573-1.208,4.829-1.208s2.891,1.208,4.863,1.172c2.01-.037,3.285-1.826,4.512-3.621a16.131,16.131,0,0,0,2.041-4.193A6.514,6.514,0,0,1,23.9,17.658ZM20.191,6.705A6.491,6.491,0,0,0,21.724,2a6.606,6.606,0,0,0-4.34,2.234A6.169,6.169,0,0,0,15.82,8.792,5.467,5.467,0,0,0,20.191,6.705Z" transform="translate(-3.857 -2)"/>
</svg>
