<svg xmlns="http://www.w3.org/2000/svg" xmlns:xlink="http://www.w3.org/1999/xlink" width="286.289" height="58.389" viewBox="0 0 286.289 58.389">
  <defs>
    <linearGradient id="linear-gradient" x1="0.911" y1="-0.353" x2="-0.667" y2="2.286" gradientUnits="objectBoundingBox">
      <stop offset="0" stop-color="#29abe2"/>
      <stop offset="0.06" stop-color="#4db9e6" stop-opacity="0.831"/>
      <stop offset="0.14" stop-color="#77c9ec" stop-opacity="0.631"/>
      <stop offset="0.22" stop-color="#9bd8f1" stop-opacity="0.459"/>
      <stop offset="0.31" stop-color="#bae4f5" stop-opacity="0.322"/>
      <stop offset="0.41" stop-color="#d3edf9" stop-opacity="0.2"/>
      <stop offset="0.51" stop-color="#e6f5fb" stop-opacity="0.11"/>
      <stop offset="0.63" stop-color="#f4fafd" stop-opacity="0.051"/>
      <stop offset="0.77" stop-color="#fcfefe" stop-opacity="0.012"/>
      <stop offset="1" stop-color="#fff" stop-opacity="0"/>
    </linearGradient>
  </defs>
  <g id="Layer_1" data-name="Layer 1" transform="translate(274.996 -171.002)">
    <g id="Group_96" data-name="Group 96" transform="translate(-274.996 171.002)">
      <path id="Path_111" data-name="Path 111" d="M159,49.212h-3.558l-4.529-10.768H136.144l-4.468,10.768H127.64L141.89,17.32h3.563ZM149.79,35.586l-6.053-14.577-6.194,14.577Z" transform="translate(-63.415 -8.606)" fill="#29abe2"/>
      <path id="Path_112" data-name="Path 112" d="M212.384,45.041V65.128h-3.15V53.243a11.8,11.8,0,0,1-8.68,4.181,11.422,11.422,0,0,1-8.806-3.542A12.176,12.176,0,0,1,188.07,45a11.8,11.8,0,0,1,3.417-8.574,11.513,11.513,0,0,1,8.348-3.729,11.679,11.679,0,0,1,8.906,3.563,11.522,11.522,0,0,1,3.643,8.781Zm-3.15.252a9.3,9.3,0,0,0-2.682-6.823,8.24,8.24,0,0,0-6.677-2.707A8.49,8.49,0,0,0,193.7,38.7a9.1,9.1,0,0,0-2.476,6.551,8.937,8.937,0,0,0,2.7,6.451,8.781,8.781,0,0,0,6.451,2.662,8.147,8.147,0,0,0,6.2-2.662A9.181,9.181,0,0,0,209.234,45.293Z" transform="translate(-93.438 -16.24)" fill="#29abe2"/>
      <path id="Path_113" data-name="Path 113" d="M263.767,47.24A10.58,10.58,0,0,1,260.8,54.9a10.655,10.655,0,0,1-14.955,0,10.6,10.6,0,0,1-2.959-7.664V33.78h3.15V47.643a6.92,6.92,0,0,0,2.189,5.127,7.156,7.156,0,0,0,10.2,0,6.912,6.912,0,0,0,2.189-5.127V33.78h3.15V47.24Z" transform="translate(-120.673 -16.783)" fill="#29abe2"/>
      <path id="Path_114" data-name="Path 114" d="M315.564,44.962V56.807h-3.15V53.119a11.793,11.793,0,0,1-17.7.458A12.017,12.017,0,0,1,291.29,45a12.377,12.377,0,0,1,3.688-8.886,11.3,11.3,0,0,1,8.821-3.5,11.854,11.854,0,0,1,8.449,3.789A11.374,11.374,0,0,1,315.564,44.962Zm-3.15-.226a9.163,9.163,0,0,0-2.657-6.39,8.306,8.306,0,0,0-6.184-2.657,9.14,9.14,0,0,0-9.133,9.093,9.085,9.085,0,0,0,2.471,6.536,8.618,8.618,0,0,0,6.164,2.969,8.361,8.361,0,0,0,6.662-2.717,9.241,9.241,0,0,0,2.677-6.828Z" transform="translate(-144.719 -16.201)" fill="#29abe2"/>
      <path id="Path_115" data-name="Path 115" d="M370.379,44.589V55.483A9.107,9.107,0,0,1,366.71,62.9a12.818,12.818,0,0,1-15.679.211,11.237,11.237,0,0,1-3.895-5.923H350.2a7.845,7.845,0,0,0,3.14,4.2,8.921,8.921,0,0,0,5.334,1.761,8.66,8.66,0,0,0,6.013-2.42,7.537,7.537,0,0,0,2.541-5.7V52.8a11.741,11.741,0,0,1-8.68,4.141,11.368,11.368,0,0,1-8.766-3.537,12.142,12.142,0,0,1-3.678-8.871,11.77,11.77,0,0,1,3.417-8.559,11.883,11.883,0,0,1,17.189-.181,11.685,11.685,0,0,1,3.668,8.8Zm-3.15.226a9.1,9.1,0,0,0-2.637-6.808,8.351,8.351,0,0,0-6.662-2.742,8.58,8.58,0,0,0-6.184,2.969,9.276,9.276,0,0,0-2.491,6.536A9.063,9.063,0,0,0,352,51.206a8.721,8.721,0,0,0,6.4,2.657,8.193,8.193,0,0,0,6.2-2.657,9.209,9.209,0,0,0,2.637-6.39Z" transform="translate(-171.949 -15.999)" fill="#1a1a1a"/>
      <path id="Path_116" data-name="Path 116" d="M421.817,47.24a10.58,10.58,0,0,1-2.964,7.664,10.655,10.655,0,0,1-14.955,0,10.6,10.6,0,0,1-2.959-7.664V33.78h3.15V47.643a6.92,6.92,0,0,0,2.189,5.127,7.156,7.156,0,0,0,10.2,0,6.912,6.912,0,0,0,2.189-5.127V33.78h3.15V47.24Z" transform="translate(-199.195 -16.783)" fill="#1a1a1a"/>
      <path id="Path_117" data-name="Path 117" d="M473.614,44.962V56.807h-3.15V53.119a11.793,11.793,0,0,1-17.7.458A12.018,12.018,0,0,1,449.34,45a12.377,12.377,0,0,1,3.688-8.886,11.3,11.3,0,0,1,8.821-3.5,11.854,11.854,0,0,1,8.449,3.789A11.374,11.374,0,0,1,473.614,44.962Zm-3.15-.226a9.163,9.163,0,0,0-2.657-6.39,8.306,8.306,0,0,0-6.184-2.657,9.14,9.14,0,0,0-9.133,9.093,9.085,9.085,0,0,0,2.471,6.536,8.617,8.617,0,0,0,6.164,2.969,8.361,8.361,0,0,0,6.662-2.717,9.241,9.241,0,0,0,2.677-6.828Z" transform="translate(-223.24 -16.201)" fill="#1a1a1a"/>
      <path id="Path_118" data-name="Path 118" d="M513.2,36.018a5.782,5.782,0,0,0-3.563,1.2,8.311,8.311,0,0,0-1.862,1.947,7.3,7.3,0,0,0-.785,3.643V56.936H503.67V33.326h2.939v3.356a6.874,6.874,0,0,1,2.939-2.939,6.969,6.969,0,0,1,3.643-.871v3.15Z" transform="translate(-250.232 -16.33)" fill="#1a1a1a"/>
      <path id="Path_119" data-name="Path 119" d="M544.979,37.647a11.5,11.5,0,0,1-3.648,8.8,11.651,11.651,0,0,1-8.866,3.542,11.494,11.494,0,0,1-8.348-3.729,12.029,12.029,0,0,1-3.417-8.574,12.407,12.407,0,0,1,3.678-8.886,11.347,11.347,0,0,1,8.766-3.542,11.711,11.711,0,0,1,8.68,4.181V17.56h3.15V37.647Zm-3.15-.252a9.245,9.245,0,0,0-2.637-6.406,8.273,8.273,0,0,0-6.2-2.662,8.622,8.622,0,0,0-6.416,2.642,8.954,8.954,0,0,0-2.717,6.471,9.312,9.312,0,0,0,2.491,6.551,8.431,8.431,0,0,0,6.184,2.934,8.209,8.209,0,0,0,6.662-2.707A9.157,9.157,0,0,0,541.829,37.4Z" transform="translate(-258.693 -8.725)" fill="#1a1a1a"/>
      <path id="Path_120" data-name="Path 120" d="M10,27.645c.387.151.775.3,1.167.433h0a34.439,34.439,0,0,0,21.914,0,46.977,46.977,0,0,0,5.892-2.289,59.655,59.655,0,0,0,10.174-6.1c.04,1.213.07,2.405.04,3.6A59.008,59.008,0,0,1,47.1,37.744c-.151.543-.312,1.082-.478,1.615a45,45,0,0,1-2.707,6.677H15a45.472,45.472,0,0,1-2.154-4.956A52.36,52.36,0,0,1,10.257,30c-.1-.73-.181-1.459-.247-2.189" transform="translate(-4.97 -9.783)" fill="#29abe2"/>
      <path id="Path_121" data-name="Path 121" d="M44.508,63.1a57.937,57.937,0,0,0,7.653-4.332,45,45,0,0,1-2.707,6.677c-.231.458-.473.916-.725,1.369a41.724,41.724,0,0,1-5.611,7.88,50.164,50.164,0,0,1-4.644,4.488c-2.682,2.295-4.312,2.259-7.035-.025a42.959,42.959,0,0,1-10.31-12.58,35.354,35.354,0,0,0,17.3-1.137c.7-.216,1.409-.453,2.118-.709,1.308-.478,2.627-1.021,3.955-1.64Z" transform="translate(-10.5 -29.199)" fill="#0071bc"/>
      <path id="Path_122" data-name="Path 122" d="M43.215,55.4a41.725,41.725,0,0,1-5.611,7.88,50.164,50.164,0,0,1-4.644,4.488c-2.682,2.295-4.312,2.259-7.035-.025a42.959,42.959,0,0,1-10.31-12.58c-.206-.372-.4-.755-.594-1.137a45.471,45.471,0,0,1-2.154-4.956,52.36,52.36,0,0,1-2.591-11.085c-.1-.73-.181-1.459-.247-2.189A69.468,69.468,0,0,0,31.088,51.686c1.328.619,2.647,1.162,3.955,1.64.709.257,1.414.493,2.118.709A39.513,39.513,0,0,0,43.215,55.4Z" transform="translate(-4.985 -17.787)"/>
      <path id="Path_123" data-name="Path 123" d="M9.96,24.486c-.015-.156-.03-.307-.04-.463.4.312.8.609,1.208.9h0c6.7,4.654,14.1,4.871,21.914,0a38.576,38.576,0,0,0,5.892-4.574,61.819,61.819,0,0,0,6.4-7.014q1.313.3,2.637.594c.312.07.619.181,1.077.317.015.775.045,1.535.065,2.284.04,1.213.07,2.405.04,3.6A59.008,59.008,0,0,1,47.065,34.58c-.151.543-.312,1.082-.478,1.615a45,45,0,0,1-2.707,6.677c-.231.458-.473.916-.725,1.369a41.725,41.725,0,0,1-5.611,7.88A50.165,50.165,0,0,1,32.9,56.609c-2.682,2.295-4.312,2.259-7.035-.025A42.959,42.959,0,0,1,15.556,44c-.206-.372-.4-.755-.594-1.137a45.471,45.471,0,0,1-2.154-4.956,52.36,52.36,0,0,1-2.591-11.085c-.1-.73-.181-1.459-.247-2.189" transform="translate(-4.93 -6.624)" fill="url(#linear-gradient)"/>
      <path id="Path_124" data-name="Path 124" d="M24.507,58.391c-1.535,0-3.085-.76-4.9-2.29A52.555,52.555,0,0,1,7.072,40.809c-.247-.453-.488-.916-.725-1.384a55.658,55.658,0,0,1-2.612-6.013A62.86,62.86,0,0,1,.6,19.983C.48,19.137.384,18.267.3,17.326c-.005-.065-.015-.141-.02-.221v-.045q-.03-.242-.045-.483A99.457,99.457,0,0,1,.067,6.095C.123,4.338.435,3.941,2.155,3.423A78.271,78.271,0,0,1,19.661.152a64.683,64.683,0,0,1,15.86.84c2.813.523,5.661,1.172,8.177,1.751,1.042.236,2.088.473,3.13.7.161.035.312.081.478.126A2.278,2.278,0,0,1,48.942,5.7L49,7.524c.045,1.379.086,2.863.05,4.348h0a71.878,71.878,0,0,1-2.516,17.486c-.186.659-.377,1.313-.584,1.957a55.116,55.116,0,0,1-3.291,8.111c-.282.559-.574,1.117-.881,1.666a51.126,51.126,0,0,1-6.828,9.586,60.927,60.927,0,0,1-5.631,5.439c-1.766,1.51-3.286,2.269-4.815,2.269ZM2.15,5.586c-.015.156-.02.4-.025.569A97.522,97.522,0,0,0,2.281,16.41c.01.156.025.3.04.453l.02.247c.086.931.176,1.771.292,2.586a61.035,61.035,0,0,0,3.029,13,54.625,54.625,0,0,0,2.521,5.8c.226.453.453.891.694,1.323a50.534,50.534,0,0,0,12.046,14.7c2.883,2.415,4.267,2.42,7.06.035A58.085,58.085,0,0,0,33.423,49.3a49.3,49.3,0,0,0,6.551-9.2c.292-.533.574-1.062.845-1.6a52.582,52.582,0,0,0,3.17-7.809c.2-.624.382-1.258.564-1.892a69.706,69.706,0,0,0,2.44-16.977h0c.035-1.429,0-2.878-.045-4.232l-.055-1.827a.231.231,0,0,0-.166-.216c-.116-.035-.226-.065-.337-.091q-1.57-.347-3.14-.709c-2.5-.574-5.329-1.218-8.1-1.731A62.548,62.548,0,0,0,19.8,2.2,76.166,76.166,0,0,0,2.784,5.38c-.236.07-.473.141-.624.2Z" transform="translate(-0.004 -0.002)" fill="#1a1a1a"/>
    </g>
  </g>
</svg>
