<svg xmlns="http://www.w3.org/2000/svg" width="58" height="48" viewBox="0 0 58 48">
  <g id="Group_9" data-name="Group 9" transform="translate(-11.56 -7)">
    <rect id="Rectangle_18" data-name="Rectangle 18" width="58" height="48" rx="20" transform="translate(11.56 7)" fill="#28abe2"/>
    <path id="Icon_ionic-ios-return-left" data-name="Icon ionic-ios-return-left" d="M4.906,17.784l3.722-3.709a.869.869,0,0,1,.618-.256.854.854,0,0,1,.618.256.874.874,0,0,1,0,1.236l-.006.006-2.566,2.5H23.608a3.105,3.105,0,0,0,2.2-.918,3.073,3.073,0,0,0,.918-2.2v-3a.874.874,0,1,1,1.748,0v3a4.882,4.882,0,0,1-4.871,4.871H7.266l2.473,2.51A.869.869,0,0,1,10,22.7a.854.854,0,0,1-.256.618l-.006.006a.9.9,0,0,1-.612.244.834.834,0,0,1-.618-.256l-3.6-3.584a1.38,1.38,0,0,1-.406-.98A1.337,1.337,0,0,1,4.906,17.784Z" transform="translate(24.058 14.172)" fill="#fff"/>
  </g>
</svg>
