<svg id="Group_95" data-name="Group 95" xmlns="http://www.w3.org/2000/svg" width="29.895" height="41.183" viewBox="0 0 29.895 41.183">
  <path id="Path_86" data-name="Path 86" d="M146.745,329.014a1.062,1.062,0,0,0,1.062,1.062h24.31a1.062,1.062,0,1,0,0-2.124h-24.31a1.062,1.062,0,0,0-1.062,1.062Z" transform="translate(-143.283 -303.834)"/>
  <path id="Path_87" data-name="Path 87" d="M173.51,170.575h22.522a11.261,11.261,0,0,0-22.522,0Z" transform="translate(-168.105 -147.705)"/>
  <path id="Path_88" data-name="Path 88" d="M308.962,0V2.574h14.5a.888.888,0,0,1,.888.895v7.123l.643-.038h1.287l.643.038V3.462A3.468,3.468,0,0,0,323.465,0Z" transform="translate(-308.962)"/>
  <path id="Path_89" data-name="Path 89" d="M174.115,402.843a.644.644,0,0,0,.643-.643v-1.287a.644.644,0,0,0-1.248,0V402.2A.644.644,0,0,0,174.115,402.843Z" transform="translate(-146.832 -370.978)"/>
  <path id="Path_90" data-name="Path 90" d="M222.155,402.843a.644.644,0,0,0,.643-.643v-1.287a.643.643,0,0,0-1.248,0V402.2A.643.643,0,0,0,222.155,402.843Z" transform="translate(-198.404 -370.978)"/>
  <path id="Path_91" data-name="Path 91" d="M270.291,402.676a.644.644,0,0,0,.643-.643v-1.287a.643.643,0,0,0-1.255,0v1.287a.644.644,0,0,0,.611.643Z" transform="translate(-250.08 -370.811)"/>
  <path id="Path_92" data-name="Path 92" d="M318.315,402.843a.644.644,0,0,0,.643-.643v-1.287a.644.644,0,0,0-1.249,0V402.2a.644.644,0,0,0,.605.643Z" transform="translate(-301.636 -370.978)"/>
  <path id="Path_93" data-name="Path 93" d="M366.111,398.9a.644.644,0,0,0,.643-.643v-1.287a.644.644,0,1,0-1.248,0v1.287A.644.644,0,0,0,366.111,398.9Z" transform="translate(-352.965 -367.037)"/>
  <path id="Path_94" data-name="Path 94" d="M414.395,402.843a.643.643,0,0,0,.643-.643v-1.287a.643.643,0,0,0-1.248,0V402.2A.644.644,0,0,0,414.395,402.843Z" transform="translate(-404.782 -370.978)"/>
  <path id="Path_95" data-name="Path 95" d="M462.521,402.676a.643.643,0,0,0,.643-.643v-1.287a.643.643,0,0,0-1.255,0v1.287A.644.644,0,0,0,462.521,402.676Z" transform="translate(-456.447 -370.811)"/>
  <path id="Path_96" data-name="Path 96" d="M198.175,466.2a.643.643,0,0,0,.643-.643v-1.287a.644.644,0,0,0-1.248,0v1.287A.643.643,0,0,0,198.175,466.2Z" transform="translate(-172.661 -429.672)"/>
  <path id="Path_97" data-name="Path 97" d="M246.215,466.2a.643.643,0,0,0,.643-.643v-1.287a.643.643,0,0,0-1.248,0v1.287A.643.643,0,0,0,246.215,466.2Z" transform="translate(-224.234 -429.672)"/>
  <path id="Path_98" data-name="Path 98" d="M294.255,466.2a.643.643,0,0,0,.643-.643v-1.287a.644.644,0,0,0-1.248,0v1.287A.643.643,0,0,0,294.255,466.2Z" transform="translate(-275.807 -429.672)"/>
  <path id="Path_99" data-name="Path 99" d="M342.333,464.224a.643.643,0,0,0,.643-.643v-1.287a.643.643,0,0,0-1.287,0v1.287a.643.643,0,0,0,.643.643Z" transform="translate(-327.418 -427.7)"/>
  <path id="Path_100" data-name="Path 100" d="M390.171,462.255a.643.643,0,0,0,.643-.643v-1.287a.643.643,0,1,0-1.248,0v1.287A.644.644,0,0,0,390.171,462.255Z" transform="translate(-378.794 -425.731)"/>
  <path id="Path_101" data-name="Path 101" d="M438.105,466.2a.643.643,0,0,0,.643-.643v-1.287a.644.644,0,0,0-1.249,0v1.287A.644.644,0,0,0,438.105,466.2Z" transform="translate(-430.235 -429.672)"/>
  <path id="Path_102" data-name="Path 102" d="M174.115,529.546a.644.644,0,0,0,.643-.643v-1.287a.644.644,0,0,0-1.248,0V528.9A.643.643,0,0,0,174.115,529.546Z" transform="translate(-146.832 -488.364)"/>
  <path id="Path_103" data-name="Path 103" d="M222.155,529.546a.644.644,0,0,0,.643-.643v-1.287a.643.643,0,0,0-1.248,0V528.9A.643.643,0,0,0,222.155,529.546Z" transform="translate(-198.404 -488.364)"/>
  <path id="Path_104" data-name="Path 104" d="M270.291,529.376a.644.644,0,0,0,.643-.644v-1.287a.643.643,0,0,0-1.255,0v1.287a.644.644,0,0,0,.611.644Z" transform="translate(-250.08 -488.194)"/>
  <path id="Path_105" data-name="Path 105" d="M318.315,529.546a.644.644,0,0,0,.643-.643v-1.287a.644.644,0,0,0-1.249,0V528.9a.643.643,0,0,0,.605.643Z" transform="translate(-301.636 -488.364)"/>
  <path id="Path_106" data-name="Path 106" d="M366.111,525.6a.644.644,0,0,0,.643-.643v-1.287a.644.644,0,1,0-1.248,0v1.287A.644.644,0,0,0,366.111,525.6Z" transform="translate(-352.965 -484.419)"/>
  <path id="Path_107" data-name="Path 107" d="M414.395,529.546a.643.643,0,0,0,.643-.643v-1.287a.643.643,0,0,0-1.248,0V528.9A.643.643,0,0,0,414.395,529.546Z" transform="translate(-404.782 -488.364)"/>
  <path id="Path_108" data-name="Path 108" d="M462.521,529.376a.643.643,0,0,0,.643-.644v-1.287a.643.643,0,0,0-1.255,0v1.287A.644.644,0,0,0,462.521,529.376Z" transform="translate(-456.447 -488.194)"/>
</svg>
