<svg xmlns="http://www.w3.org/2000/svg" width="25" height="25" viewBox="0 0 25 25">
  <g id="gear" transform="translate(0 0)">
    <path id="Path_9" data-name="Path 9" d="M9.551,4.754a4.8,4.8,0,1,0,4.8,4.8,4.8,4.8,0,0,0-4.8-4.8Zm-3.319,4.8a3.319,3.319,0,1,1,3.319,3.319A3.319,3.319,0,0,1,6.232,9.551Z" transform="translate(2.949 2.949)" fill="#28abe2"/>
    <path id="Path_10" data-name="Path 10" d="M15.307,2.1a2.926,2.926,0,0,0-5.613,0l-.147.5a1.364,1.364,0,0,1-1.961.813l-.456-.25A2.927,2.927,0,0,0,3.161,7.13l.248.456A1.364,1.364,0,0,1,2.6,9.547l-.5.147a2.926,2.926,0,0,0,0,5.613l.5.147a1.364,1.364,0,0,1,.813,1.961l-.25.456A2.926,2.926,0,0,0,7.13,21.84l.456-.248a1.364,1.364,0,0,1,1.961.813l.147.5a2.926,2.926,0,0,0,5.613,0l.147-.5a1.364,1.364,0,0,1,1.961-.813l.456.25a2.926,2.926,0,0,0,3.969-3.971l-.248-.456a1.364,1.364,0,0,1,.813-1.961l.5-.147a2.926,2.926,0,0,0,0-5.613l-.5-.147a1.364,1.364,0,0,1-.813-1.961l.25-.456a2.927,2.927,0,0,0-3.971-3.969l-.456.248A1.364,1.364,0,0,1,15.454,2.6l-.147-.5Zm-4.114.442a1.363,1.363,0,0,1,2.616,0l.147.5a2.927,2.927,0,0,0,4.208,1.742l.455-.25a1.365,1.365,0,0,1,1.85,1.852l-.248.456a2.927,2.927,0,0,0,1.744,4.207l.5.147a1.363,1.363,0,0,1,0,2.616l-.5.147a2.927,2.927,0,0,0-1.742,4.208l.25.455a1.365,1.365,0,0,1-1.852,1.85l-.455-.248a2.927,2.927,0,0,0-4.208,1.744l-.147.5a1.363,1.363,0,0,1-2.616,0l-.147-.5A2.927,2.927,0,0,0,6.839,20.22l-.456.25a1.365,1.365,0,0,1-1.85-1.852l.248-.455a2.927,2.927,0,0,0-1.742-4.21l-.5-.147a1.363,1.363,0,0,1,0-2.616l.5-.147a2.927,2.927,0,0,0,1.742-4.2l-.25-.456a1.365,1.365,0,0,1,1.852-1.85l.456.248a2.927,2.927,0,0,0,4.207-1.742l.147-.5Z" transform="translate(0 0)" fill="#28abe2"/>
  </g>
</svg>
