<svg xmlns="http://www.w3.org/2000/svg" width="25" height="25" viewBox="0 0 25 25">
  <g id="Group_1" data-name="Group 1" transform="translate(-2 -2.994)">
    <path id="Path_2" data-name="Path 2" d="M14.668,1023.358A12.5,12.5,0,1,0,27,1035.853h-.006v-1.389H15.887v3.7h7.239a8.932,8.932,0,1,1-2.313-8.629l2.527-2.525a12.484,12.484,0,0,0-8.671-3.656Z" transform="translate(0 -1020.362)" fill="#ea4335" fill-rule="evenodd"/>
    <path id="Path_3" data-name="Path 3" d="M6.017,1039.765,3.1,1042.183c2.282,5.842,8,9.163,13.685,7.92a12.022,12.022,0,0,0,6.634-4.112l-2.748-2.416a8.259,8.259,0,0,1-8.313,2.672,9.15,9.15,0,0,1-6.341-6.482Z" transform="translate(0 -1022.368)" fill="#34a853" fill-rule="evenodd"/>
    <path id="Path_4" data-name="Path 4" d="M4.5,1029.034a13.53,13.53,0,0,0-1.47,12.992c.041.1.128.3.128.3,1.354-.782,2.354-1.468,3.306-2.116a9.625,9.625,0,0,1,1.068-8.79c-2.02-1.562-2.02-1.562-3.032-2.385Z" transform="translate(0 -1021.192)" fill="#fbbc05" fill-rule="evenodd"/>
    <path id="Path_5" data-name="Path 5" d="M17,1035.357v4h7.82a9.609,9.609,0,0,1-2.416,4.218l3.022,2.416a13.481,13.481,0,0,0,3.58-9.134H29v-1.5H17Z" transform="translate(-2.008 -1021.832)" fill="#4788f4" fill-rule="evenodd"/>
    <path id="Path_6" data-name="Path 6" d="M14.668,1023.358A12.5,12.5,0,1,0,27,1035.853h-.006v-1.389H15.887v3.7h7.239a8.932,8.932,0,1,1-2.313-8.629l2.527-2.525a12.484,12.484,0,0,0-8.671-3.656Z" transform="translate(0 -1020.362)" fill="none"/>
    <path id="Path_7" data-name="Path 7" d="M4.366,8.572,7.124,11.04M20.672,23.16l2.722,2.435M6.084,19.563,3.04,22.068" transform="translate(0 -1.121)" fill="none"/>
  </g>
</svg>
