<svg xmlns="http://www.w3.org/2000/svg" width="236.497" height="197.938" viewBox="0 0 236.497 197.938">
  <g id="Group_203" data-name="Group 203" transform="translate(-46 -124)">
    <g id="Group_105" data-name="Group 105" transform="translate(0.413)">
      <g id="Group_103" data-name="Group 103" transform="translate(48.587 124)">
        <path id="Path_129" data-name="Path 129" d="M67.338,89.1c-.224-.5-.641-1-.644-1.5-.04-7.915-.03-15.83-.027-23.745,0-1.172.377-1.531,1.574-1.537.543,0,1.087,0,1.715,0v-.932q0-19.178,0-38.357A13.591,13.591,0,0,0,43,20.3a54.081,54.081,0,0,0-.282,6.933c-.039,1.547-.277,1.812-1.833,1.812q-3,0-6,0c-.761,0-1.352-.282-1.352-1.127,0-3.47-.2-6.948.581-10.383A23.172,23.172,0,0,1,52.32.343,22.859,22.859,0,0,1,78.706,18.392a23.418,23.418,0,0,1,.436,4.4q.05,19.178.02,38.357v1.17c.635,0,1.23-.007,1.825,0,1.023.014,1.423.39,1.432,1.421.017,1.97,0,3.941,0,6.058,1.268,0,2.5-.017,3.731.007a5.3,5.3,0,0,0,2.321-.483,12.517,12.517,0,0,1,2.929-.629,8.04,8.04,0,0,1,1.235-.01c.018-.388.047-.72.047-1.052q0-6.089,0-12.177c0-1.387.283-1.659,1.689-1.661.9,0,1.8,0,2.7,0,1.173.007,1.545.379,1.546,1.573q.007,6.219,0,12.438v.82c.449.077.845.122,1.229.215a6.569,6.569,0,0,1,5.092,6.931,6.36,6.36,0,0,1-5.9,6.018c-2.915.17-5.848.034-8.773,0a2.486,2.486,0,0,1-1.324-.346c-1.191-.831-2.518-.7-3.839-.7-.838,0-1.677,0-2.655,0v1.212c0,1.885.046,3.771-.031,5.653a4.668,4.668,0,0,1-.644,1.5ZM40.486,22.61c.084-.695.152-1.269.221-1.843C41.98,10.177,53.7,3.81,63.212,8.642c5.976,3.035,8.9,8.067,8.91,14.761q.025,18.875.005,37.751v1.115H77v-.985q0-18.919-.01-37.838a28.5,28.5,0,0,0-.241-3.637A20.572,20.572,0,0,0,53.744,2.33c-8.521,1.252-14.239,6.119-17.1,14.259a17.786,17.786,0,0,0-.956,6.021h4.8ZM80.22,80.786c-3.321-.709-5.168-2.582-5.226-5.227-.069-3.13,1.515-4.919,5.184-5.862v-1.3H68.914V83.224H80.22Zm18.172-1.074a4.445,4.445,0,1,0-.058-8.889,4.445,4.445,0,0,0,.058,8.889M85.606,78.52a7.276,7.276,0,0,1-.018-6.492c-1.993,0-3.9,0-5.8.007a1.688,1.688,0,0,0-.579.16,3.337,3.337,0,0,0-2.1,3.286,3.149,3.149,0,0,0,2.763,3.006c1.867.136,3.75.033,5.729.033m7.7-7.652c-2.307-.2-4.5-.218-5.749,2.119a4.529,4.529,0,0,0,.337,5.065c1.373,1.92,3.382,1.74,5.426,1.6a7.01,7.01,0,0,1-.013-8.785m1.566-2.292h1.5V56h-1.5ZM80.21,64.557h-11.3v1.532h11.3ZM68.9,86.914h11.3V85.5H68.9ZM35.725,26.763h4.784V24.777H35.725Z" transform="translate(-14.235 0)" fill="#1a1818"/>
        <path id="Path_130" data-name="Path 130" d="M41.641,23.742h-4.8a17.8,17.8,0,0,1,.956-6.021C40.662,9.581,46.379,4.714,54.9,3.462a20.572,20.572,0,0,1,23.008,17.48,28.5,28.5,0,0,1,.241,3.637q.025,18.918.01,37.838V63.4H73.284V62.286q0-18.876-.005-37.751c-.008-6.694-2.935-11.726-8.91-14.761C54.857,4.942,43.137,11.309,41.863,21.9c-.069.574-.138,1.148-.221,1.843" transform="translate(-15.391 -1.132)" fill="#fff"/>
        <path id="Path_131" data-name="Path 131" d="M99.08,117.222v2.437H87.773V104.828H99.038v1.3c-3.669.943-5.253,2.732-5.184,5.862.057,2.645,1.905,4.518,5.225,5.227" transform="translate(-33.094 -36.436)" fill="#fff"/>
        <path id="Path_132" data-name="Path 132" d="M130.584,117.442a4.445,4.445,0,0,1-.058-8.889,4.445,4.445,0,1,1,.058,8.889" transform="translate(-46.426 -37.73)" fill="#fff"/>
        <path id="Path_133" data-name="Path 133" d="M108.826,116.891c-1.979,0-3.862.1-5.728-.032a3.149,3.149,0,0,1-2.763-3.006,3.336,3.336,0,0,1,2.1-3.286,1.688,1.688,0,0,1,.579-.16c1.9-.012,3.806-.007,5.8-.007a7.276,7.276,0,0,0,.018,6.492" transform="translate(-37.456 -38.372)" fill="#fff"/>
        <path id="Path_134" data-name="Path 134" d="M121.763,108.577a7.01,7.01,0,0,0,.013,8.785c-2.045.14-4.052.32-5.426-1.6a4.53,4.53,0,0,1-.337-5.065c1.251-2.337,3.442-2.317,5.75-2.119" transform="translate(-42.695 -37.71)" fill="#fff"/>
        <rect id="Rectangle_37" data-name="Rectangle 37" width="1.498" height="12.572" transform="translate(80.634 56.003)" fill="#fff"/>
        <rect id="Rectangle_38" data-name="Rectangle 38" width="11.301" height="1.532" transform="translate(54.673 64.556)" fill="#fff"/>
        <rect id="Rectangle_39" data-name="Rectangle 39" width="11.299" height="1.413" transform="translate(54.661 85.501)" fill="#fff"/>
        <rect id="Rectangle_40" data-name="Rectangle 40" width="4.784" height="1.987" transform="translate(21.49 24.777)" fill="#fff"/>
        <path id="Path_135" data-name="Path 135" d="M3.965,92.133c1.116-.328,2.171-.671,3.244-.939a1.3,1.3,0,0,0,1.013-.876,10.2,10.2,0,0,1,2.386-3.925,14.472,14.472,0,0,1,2.646-1.9A7.5,7.5,0,0,0,16.7,80.367c.543-1.52,1.154-3.016,1.722-4.528.273-.724.516-1.459.769-2.181A6.456,6.456,0,0,1,24.8,79.725a8.472,8.472,0,0,1-.635,3.2l-1.386,4.026a1.045,1.045,0,0,1-.063.187,1.91,1.91,0,0,0-.11,1.8,11.249,11.249,0,0,1,.4,1.445c1.416-.747,2.776-1.462,4.133-2.183.779-.415,1.575-.806,2.319-1.276a2.692,2.692,0,0,0,.778-.881c.6-.975,1.117-2,1.733-2.959a5.144,5.144,0,0,1,2.609-2.056,5.369,5.369,0,0,1,4.019.008,21.915,21.915,0,0,1,2.169,1.206c-.1.32-.179.568-.271.862a6.118,6.118,0,0,1,4.711,1.8c-.6,1.077-1.172,2.137-1.765,3.188-.784,1.387-1.584,2.765-2.37,4.15-.392.69-.8,1.376-1.145,2.087-.3.6-.885.774-1.406,1.035-2.484,1.246-5,2.428-7.462,3.718a40.131,40.131,0,0,1-7.877,2.927c-4.127,1.161-8.238,2.379-12.356,3.571-.765.222-1.541.412-2.295.668-.4.137-.522-.026-.615-.359-.536-1.908-1.071-3.817-1.621-5.722-.767-2.659-1.546-5.313-2.338-8.031M20.648,76.839c-.556,1.48-1.122,2.924-1.64,4.384a9.57,9.57,0,0,1-4.737,5.487A7.489,7.489,0,0,0,12.1,88.4c-1.11,1.249-1.52,2.847-2.268,4.275a1,1,0,0,1-.491.455,17.967,17.967,0,0,1-1.911.553c-.4.093-.425.278-.32.625.449,1.489.875,2.986,1.311,4.479q.6,2.052,1.2,4.1c.069.237.132.44.468.341q3.633-1.072,7.271-2.126c2.171-.63,4.35-1.231,6.513-1.886A28.017,28.017,0,0,0,27.64,97.93c3.285-1.532,6.522-3.166,9.781-4.755a1.569,1.569,0,0,0,.75-.72c.615-1.163,1.294-2.291,1.936-3.44.6-1.08,1.19-2.17,1.784-3.254a2.821,2.821,0,0,0-3.23.778c-.916,1.319-1.754,2.691-2.631,4.038a.988.988,0,0,1-.314.363q-3.806,1.936-7.627,3.843a.965.965,0,0,1-.53.075c-1.931-.252-3.862-.512-5.789-.8a.639.639,0,0,1-.414-.385c-.461-1.6-.879-3.216-1.342-4.818a2.388,2.388,0,0,1,.115-1.81,15.774,15.774,0,0,0,.643-1.763c.46-1.34.9-2.687,1.373-4.023a3.862,3.862,0,0,0-1.5-4.423m4.667,15.128.01.1c.578.077,1.155.174,1.735.221a1.465,1.465,0,0,0,.737-.119c1.719-.85,3.4-1.772,5.147-2.57a4.322,4.322,0,0,0,2.023-1.93c.474-.838,1.022-1.635,1.527-2.456.385-.625.755-1.26,1.143-1.909a3.322,3.322,0,0,0-3.992,1.7c-.516.983-1.1,1.931-1.666,2.885a2.172,2.172,0,0,1-.613.8c-1.107.644-2.251,1.221-3.378,1.827-.893.481-1.782.968-2.673,1.453" transform="translate(-3.965 -25.602)" fill="#1a1818"/>
        <path id="Path_136" data-name="Path 136" d="M22.3,78.533a3.864,3.864,0,0,1,1.5,4.423c-.472,1.336-.913,2.683-1.373,4.023a15.989,15.989,0,0,1-.643,1.763,2.384,2.384,0,0,0-.115,1.81c.463,1.6.88,3.216,1.341,4.818a.642.642,0,0,0,.414.386c1.927.284,3.858.543,5.789.8a.965.965,0,0,0,.53-.075q3.821-1.906,7.627-3.843a.982.982,0,0,0,.314-.363c.876-1.347,1.715-2.719,2.631-4.038a2.822,2.822,0,0,1,3.231-.778c-.6,1.085-1.181,2.174-1.784,3.254-.643,1.149-1.322,2.278-1.937,3.441a1.566,1.566,0,0,1-.749.72c-3.258,1.59-6.5,3.223-9.781,4.755a28.017,28.017,0,0,1-3.759,1.294c-2.163.654-4.342,1.255-6.513,1.886q-3.638,1.056-7.27,2.126c-.335.1-.4-.1-.468-.341-.4-1.367-.8-2.734-1.2-4.1-.437-1.493-.863-2.989-1.311-4.479-.105-.347-.084-.532.32-.625a17.98,17.98,0,0,0,1.912-.553,1,1,0,0,0,.491-.455c.748-1.429,1.158-3.026,2.268-4.275a7.509,7.509,0,0,1,2.165-1.7,9.569,9.569,0,0,0,4.737-5.487c.518-1.46,1.084-2.9,1.64-4.384" transform="translate(-5.614 -27.296)" fill="#fff"/>
        <path id="Path_137" data-name="Path 137" d="M36.688,97.016c.891-.485,1.78-.972,2.673-1.453,1.127-.607,2.272-1.184,3.378-1.827a2.172,2.172,0,0,0,.613-.8c.569-.954,1.15-1.9,1.666-2.885a3.322,3.322,0,0,1,3.992-1.7c-.388.649-.758,1.284-1.143,1.909-.506.821-1.053,1.617-1.527,2.456a4.322,4.322,0,0,1-2.023,1.93c-1.743.8-3.428,1.72-5.147,2.57a1.465,1.465,0,0,1-.737.119c-.581-.046-1.157-.144-1.735-.221l-.01-.1" transform="translate(-15.339 -30.652)" fill="#fff"/>
        <path id="Path_138" data-name="Path 138" d="M38.163,51.394a.186.186,0,0,0,.037.029.63.63,0,0,1,.444.664q0,6.64,0,13.281v.23c.063-.06.1-.1.142-.135q1.033-1.039,2.068-2.078a.645.645,0,1,1,.9.917q-.928.929-1.853,1.863-.706.71-1.414,1.418a.64.64,0,0,1-.976,0Q35.88,65.945,34.248,64.3a.639.639,0,0,1-.189-.684.614.614,0,0,1,.533-.445.648.648,0,0,1,.573.222q1.021,1.03,2.044,2.057c.04.04.074.088.111.132l.042-.018v-.183q0-6.592-.005-13.185a.755.755,0,0,1,.486-.805Z" transform="translate(-14.413 -17.863)" fill="#1a1818"/>
      </g>
      <g id="Group_100" data-name="Group 100" transform="translate(189.412 124.363)">
        <rect id="Rectangle_41" data-name="Rectangle 41" width="6.028" height="3.703" transform="translate(20.831 23.568)" fill="#00549b"/>
        <path id="Path_139" data-name="Path 139" d="M282.825,88.927c-.222-.5-.636-.99-.639-1.486-.04-7.851-.03-15.7-.027-23.551,0-1.163.374-1.519,1.562-1.525.539,0,1.078,0,1.7,0V61.44q0-19.022,0-38.044a13.48,13.48,0,0,0-26.73-2.706,53.676,53.676,0,0,0-.28,6.877c-.038,1.534-.275,1.8-1.818,1.8q-2.976,0-5.952,0c-.756,0-1.342-.28-1.341-1.118,0-3.442-.2-6.891.576-10.3A22.983,22.983,0,0,1,267.929.9,22.674,22.674,0,0,1,294.1,18.8a23.255,23.255,0,0,1,.433,4.361q.05,19.022.02,38.044v1.16c.63,0,1.22-.007,1.81,0,1.015.014,1.411.387,1.42,1.409.017,1.954,0,3.909,0,6.01,1.259,0,2.48-.018,3.7.006a5.262,5.262,0,0,0,2.3-.479,12.446,12.446,0,0,1,2.9-.624,8,8,0,0,1,1.225-.01c.018-.384.047-.714.047-1.044q0-6.038,0-12.077c0-1.376.281-1.646,1.676-1.648.891,0,1.783,0,2.674,0,1.163.007,1.533.376,1.534,1.561q.007,6.168,0,12.337v.813c.445.076.838.121,1.219.213a6.514,6.514,0,0,1,5.049,6.875,6.307,6.307,0,0,1-5.852,5.968c-2.891.169-5.8.034-8.7,0a2.463,2.463,0,0,1-1.313-.343c-1.182-.823-2.5-.7-3.808-.695-.832,0-1.664,0-2.633,0v1.2c0,1.869.046,3.74-.031,5.606a4.639,4.639,0,0,1-.639,1.484ZM256.191,22.982l.22-1.827c1.263-10.5,12.888-16.818,22.321-12.027,5.927,3.011,8.829,8,8.838,14.641q.025,18.721.005,37.443v1.106h4.836v-.977q0-18.764-.01-37.529a28.273,28.273,0,0,0-.239-3.607A20.4,20.4,0,0,0,269.342,2.868c-8.452,1.242-14.123,6.069-16.966,14.143a17.643,17.643,0,0,0-.949,5.972h4.763Zm39.411,57.7c-3.293-.7-5.125-2.56-5.184-5.184-.068-3.1,1.5-4.879,5.142-5.814V68.392H284.388V83.1H295.6Zm18.024-1.065a4.408,4.408,0,1,0-.057-8.816,4.408,4.408,0,0,0,.057,8.816m-12.683-1.183A7.219,7.219,0,0,1,300.925,72c-1.976,0-3.863,0-5.75.007a1.671,1.671,0,0,0-.574.158,3.309,3.309,0,0,0-2.079,3.26,3.123,3.123,0,0,0,2.74,2.982c1.851.134,3.719.032,5.682.032m7.635-7.59c-2.288-.2-4.463-.216-5.7,2.1a4.49,4.49,0,0,0,.334,5.024c1.362,1.9,3.353,1.726,5.381,1.587a6.952,6.952,0,0,1-.013-8.713m1.553-2.273h1.486V56.1h-1.486Zm-14.539-3.986H284.382v1.52h11.209ZM284.37,86.761h11.207v-1.4H284.37ZM251.469,27.1h4.745v-1.97h-4.745Z" transform="translate(-230.053 -0.557)" fill="#1a1818"/>
        <path id="Path_140" data-name="Path 140" d="M257.337,24.1h-4.763a17.65,17.65,0,0,1,.949-5.972c2.843-8.073,8.514-12.9,16.966-14.142a20.4,20.4,0,0,1,22.821,17.337,28.273,28.273,0,0,1,.239,3.607q.025,18.764.01,37.529v.977h-4.836V62.335q0-18.721-.005-37.443c-.008-6.639-2.91-11.63-8.838-14.641-9.433-4.792-21.058,1.522-22.321,12.026l-.22,1.828" transform="translate(-231.2 -1.68)" fill="#fff"/>
        <path id="Path_141" data-name="Path 141" d="M314.307,116.822v2.418H303.092V104.53h11.173v1.294c-3.639.936-5.209,2.71-5.141,5.814.057,2.623,1.889,4.482,5.183,5.184" transform="translate(-248.759 -36.695)" fill="#fff"/>
        <path id="Path_142" data-name="Path 142" d="M345.555,117.041a4.408,4.408,0,0,1-.058-8.816,4.408,4.408,0,1,1,.058,8.816" transform="translate(-261.982 -37.979)" fill="#fff"/>
        <path id="Path_143" data-name="Path 143" d="M323.974,116.495c-1.963,0-3.831.1-5.682-.032a3.123,3.123,0,0,1-2.74-2.982,3.309,3.309,0,0,1,2.079-3.26,1.676,1.676,0,0,1,.575-.159c1.887-.012,3.774-.007,5.75-.007a7.217,7.217,0,0,0,.018,6.438" transform="translate(-253.085 -38.615)" fill="#fff"/>
        <path id="Path_144" data-name="Path 144" d="M336.806,108.249a6.952,6.952,0,0,0,.013,8.713c-2.028.139-4.019.317-5.382-1.587a4.492,4.492,0,0,1-.334-5.024c1.24-2.318,3.414-2.3,5.7-2.1" transform="translate(-258.281 -37.959)" fill="#fff"/>
        <rect id="Rectangle_42" data-name="Rectangle 42" width="1.486" height="12.47" transform="translate(80.078 55.547)" fill="#fff"/>
        <rect id="Rectangle_43" data-name="Rectangle 43" width="11.209" height="1.519" transform="translate(54.329 64.03)" fill="#fff"/>
        <rect id="Rectangle_44" data-name="Rectangle 44" width="11.207" height="1.401" transform="translate(54.317 84.804)" fill="#fff"/>
        <path id="Path_145" data-name="Path 145" d="M219.813,91.769c1.115-.324,2.18-.651,3.256-.935a1.224,1.224,0,0,0,.943-.806,10.277,10.277,0,0,1,2.383-3.94,14.3,14.3,0,0,1,2.621-1.893,7.439,7.439,0,0,0,3.423-4.082c.541-1.507,1.142-2.992,1.705-4.491.269-.718.513-1.446.784-2.21a7.533,7.533,0,0,1,2.983,1.259,6.29,6.29,0,0,1,2.212,7.17c-.641,1.821-1.282,3.642-1.895,5.473a1.769,1.769,0,0,0-.027.9c.129.6.325,1.185.507,1.823,1.119-.591,2.19-1.153,3.257-1.722,1.048-.559,2.107-1.1,3.128-1.7a2.539,2.539,0,0,0,.775-.866c.592-.966,1.108-1.979,1.717-2.935a5.088,5.088,0,0,1,2.584-2.042,5.321,5.321,0,0,1,3.984,0,14.211,14.211,0,0,1,1.953,1.141.43.43,0,0,1,.116.35,2.985,2.985,0,0,1-.185.56,6.076,6.076,0,0,1,4.678,1.786c-.586,1.06-1.157,2.111-1.744,3.153-.784,1.391-1.58,2.774-2.368,4.162-.38.671-.776,1.334-1.118,2.023-.3.614-.9.781-1.436,1.048-2.45,1.225-4.927,2.4-7.354,3.668a39.6,39.6,0,0,1-7.857,2.917c-4.079,1.137-8.137,2.349-12.2,3.529-.743.216-1.491.415-2.226.656-.406.134-.568.015-.677-.384-.5-1.833-1.026-3.661-1.553-5.487-.776-2.683-1.562-5.362-2.365-8.117M236.37,76.613c-.612,1.581-1.242,3.126-1.809,4.694a9.132,9.132,0,0,1-4.483,5.058,7.816,7.816,0,0,0-2.191,1.705c-1.1,1.239-1.508,2.824-2.25,4.239a1,1,0,0,1-.485.455c-.667.233-1.351.419-2.034.6-.257.069-.29.149-.2.415.3.928.549,1.871.819,2.807q.85,2.951,1.7,5.9c.076.261.2.366.5.275,2.148-.639,4.3-1.259,6.456-1.882,2.4-.7,4.816-1.367,7.213-2.088a27.1,27.1,0,0,0,3.679-1.273c3.256-1.521,6.467-3.141,9.7-4.717a1.55,1.55,0,0,0,.744-.712c.609-1.153,1.283-2.273,1.919-3.412.6-1.072,1.181-2.152,1.769-3.228a2.8,2.8,0,0,0-3.2.77c-.908,1.307-1.739,2.668-2.608,4a.99.99,0,0,1-.311.361q-3.775,1.92-7.562,3.811a.963.963,0,0,1-.526.075c-1.915-.251-3.829-.508-5.739-.79a.634.634,0,0,1-.412-.381c-.458-1.588-.869-3.19-1.332-4.777a2.374,2.374,0,0,1,.115-1.795,16.107,16.107,0,0,0,.638-1.749c.455-1.329.893-2.665,1.36-3.989a3.829,3.829,0,0,0-1.469-4.379M241,91.6c0,.038,0,.075,0,.113.576.078,1.151.174,1.73.223a1.357,1.357,0,0,0,.684-.112q2.6-1.283,5.185-2.608a4.583,4.583,0,0,0,1.246-.823,8.67,8.67,0,0,0,.879-1.367c.469-.737.956-1.461,1.415-2.2.364-.59.7-1.2,1.055-1.822a3.325,3.325,0,0,0-3.937,1.677c-.521.97-1.086,1.917-1.655,2.86a2.279,2.279,0,0,1-.684.842c-1.96,1.1-3.946,2.152-5.923,3.22" transform="translate(-219.813 -25.879)" fill="#1a1818"/>
        <path id="Path_146" data-name="Path 146" d="M238,78.318A3.828,3.828,0,0,1,239.47,82.7c-.467,1.325-.9,2.661-1.36,3.99a16.286,16.286,0,0,1-.637,1.749,2.372,2.372,0,0,0-.115,1.8c.463,1.587.874,3.188,1.332,4.777a.633.633,0,0,0,.411.381c1.91.282,3.825.539,5.74.789a.967.967,0,0,0,.525-.074q3.788-1.892,7.562-3.811a1,1,0,0,0,.311-.361c.868-1.336,1.7-2.7,2.608-4a2.8,2.8,0,0,1,3.2-.769c-.589,1.075-1.171,2.156-1.77,3.228-.636,1.14-1.309,2.259-1.919,3.412a1.557,1.557,0,0,1-.744.713c-3.231,1.576-6.441,3.195-9.7,4.716a27,27,0,0,1-3.678,1.274c-2.4.721-4.808,1.393-7.213,2.088-2.154.622-4.307,1.243-6.456,1.882-.305.091-.427-.014-.5-.275q-.851-2.951-1.7-5.9c-.27-.937-.521-1.88-.819-2.807-.085-.266-.052-.346.2-.416.683-.185,1.367-.371,2.034-.6a.987.987,0,0,0,.485-.455c.742-1.416,1.149-3,2.25-4.239a7.8,7.8,0,0,1,2.191-1.705,9.136,9.136,0,0,0,4.483-5.059c.567-1.568,1.2-3.113,1.809-4.694" transform="translate(-221.443 -27.584)" fill="#fff"/>
        <path id="Path_147" data-name="Path 147" d="M252.281,96.626c1.978-1.068,3.964-2.12,5.923-3.22a2.279,2.279,0,0,0,.684-.842c.569-.943,1.133-1.89,1.655-2.86a3.325,3.325,0,0,1,3.937-1.677c-.359.622-.691,1.232-1.055,1.822-.459.743-.946,1.468-1.415,2.2a8.671,8.671,0,0,1-.879,1.367,4.584,4.584,0,0,1-1.246.823q-2.581,1.328-5.186,2.608a1.357,1.357,0,0,1-.684.112c-.579-.05-1.153-.145-1.73-.223,0-.038,0-.075,0-.113" transform="translate(-231.098 -30.908)" fill="#fff"/>
        <path id="Path_148" data-name="Path 148" d="M253.887,50.985a4.345,4.345,0,0,1,.457.353c1.032,1.028,2.056,2.064,3.086,3.094a.661.661,0,0,1,.219.672.633.633,0,0,1-1.071.283c-.406-.4-.8-.8-1.2-1.2-.329-.329-.659-.656-1.014-1.009v.209q0,6.6,0,13.2a.634.634,0,0,1-.932.6.628.628,0,0,1-.34-.6q0-5.419,0-10.837V53.171c-.065.063-.11.1-.151.145-.68.683-1.358,1.369-2.04,2.049a.64.64,0,1,1-.9-.91q.916-.916,1.827-1.837c.426-.428.848-.86,1.281-1.281a4.867,4.867,0,0,1,.457-.353Z" transform="translate(-230.229 -18.084)" fill="#1a1818"/>
      </g>
    </g>
    <g id="Group_104" data-name="Group 104">
      <g id="Group_102" data-name="Group 102" transform="translate(46 254.441)">
        <path id="Path_149" data-name="Path 149" d="M85.017,218.254c4.551,1.533,7.342,4.459,8.188,9.138a1.185,1.185,0,0,0,.62.709,4.09,4.09,0,0,1-1.649,7.893q-11.677.01-23.354,0a4.067,4.067,0,0,1-4.133-3.367,4.153,4.153,0,0,1,2.46-4.511,1.24,1.24,0,0,0,.611-.782,11.179,11.179,0,0,1,8.673-9.121.808.808,0,0,0,.741-.774c1.614-8.33,6.4-13.985,14.5-16.566a20.64,20.64,0,0,1,26.34,16.146,19.046,19.046,0,0,1,.329,3.143q.033,21.635.015,43.27a3.889,3.889,0,0,1-7.622,1.2,7.036,7.036,0,0,1-.159-1.83q-.011-20.886-.01-41.772a12.922,12.922,0,0,0-25.451-3.466,6.357,6.357,0,0,0-.1.687m-5.5-.34c.908,0,1.522-.035,2.131.01s.832-.157.981-.788a15.422,15.422,0,0,1,30.422,3.391q.036,21.24.008,42.481c0,1.306.452,1.922,1.4,1.917q1.4-.007,1.408-1.937c0-.059,0-.117,0-.176q0-20.8-.008-41.6a22.064,22.064,0,0,0-.176-2.987,18.206,18.206,0,0,0-34.97-4.248c-.477,1.214-.767,2.5-1.2,3.938m-9.231,9.837H90.634a8.2,8.2,0,0,0-6.573-7.054,32.138,32.138,0,0,0-5.347-.217,8.507,8.507,0,0,0-8.426,7.271m10.265,2.6H69.368c-.235,0-.47-.01-.7,0a1.551,1.551,0,0,0-.247,3.074,4.782,4.782,0,0,0,.962.065q11.141,0,22.284,0a4.471,4.471,0,0,0,1.045-.092,1.467,1.467,0,0,0,1.161-1.629c-.065-.888-.713-1.418-1.778-1.419q-5.768-.009-11.537,0" transform="translate(-22.457 -199.932)" fill="#1a1818"/>
        <path id="Path_150" data-name="Path 150" d="M87.463,219.262c.431-1.436.722-2.723,1.2-3.938a18.206,18.206,0,0,1,34.971,4.248,22.07,22.07,0,0,1,.176,2.987q.017,20.8.008,41.6v.176q-.012,1.932-1.409,1.938c-.949,0-1.4-.611-1.4-1.918q0-21.24-.008-42.481a15.422,15.422,0,0,0-30.422-3.39c-.149.63-.374.831-.981.787s-1.223-.01-2.131-.01" transform="translate(-30.4 -201.281)" fill="#fff"/>
        <path id="Path_151" data-name="Path 151" d="M73.314,238.691a8.507,8.507,0,0,1,8.427-7.271,32.136,32.136,0,0,1,5.346.217,8.2,8.2,0,0,1,6.573,7.054Z" transform="translate(-25.482 -210.873)" fill="#fff"/>
        <path id="Path_152" data-name="Path 152" d="M81.908,246.553q5.768,0,11.537,0c1.065,0,1.713.531,1.778,1.42a1.468,1.468,0,0,1-1.161,1.629,4.471,4.471,0,0,1-1.045.092q-11.143.007-22.284,0a4.781,4.781,0,0,1-.962-.065,1.551,1.551,0,0,1,.247-3.075c.234-.014.47,0,.7,0H81.908" transform="translate(-23.811 -216.135)" fill="#fff"/>
        <path id="Path_153" data-name="Path 153" d="M33.371,212.359a6.445,6.445,0,0,1,.395,5.463c.9-.344,1.084.192,1.268.784a6.234,6.234,0,0,1-1.973,6.934,7.481,7.481,0,0,1-3.023,1.3c-.846.217-1.7.389-2.537.646a2.756,2.756,0,0,0-1.091.611c-1.694,1.657-3.356,3.347-5.025,5.03a4.726,4.726,0,0,0-.345.449,13.167,13.167,0,0,0,1.932,1.157,4.2,4.2,0,0,0,1.646.12c2.113-.065,4.228-.27,6.337-.214a6.562,6.562,0,0,1,6.056,5.6c.049.372.093.746.112,1.12s0,.75,0,1.174c-1.5.11-3.054.2-4.6.344-1.687.159-3.376.322-5.051.571a5.8,5.8,0,0,0-3.289,1.91,10.409,10.409,0,0,1-6.221,3.278,7.168,7.168,0,0,1-1.412.2,1.183,1.183,0,0,0-1.182.757c-.537.9-1.118,1.779-1.685,2.662a4.246,4.246,0,0,1-.307.376L0,244.085c1.4-2.208,2.776-4.366,4.15-6.522,2.437-3.823,4.836-7.672,7.338-11.453a27.579,27.579,0,0,1,2.74-3.183c1.5-1.652,3.04-3.276,4.556-4.917.857-.928,1.66-1.91,2.573-2.778a2.963,2.963,0,0,1,1.348-.485c3.372-.777,6.75-1.536,10.126-2.3.194-.044.395-.065.541-.089m.919,27.729a3.951,3.951,0,0,0-2.983-2.728,11.647,11.647,0,0,0-2.588-.061c-1.515.051-3.027.184-4.542.217a3.731,3.731,0,0,1-2.466-.368c-1.48-1.022-3.031-1.946-4.577-2.869a.6.6,0,0,1-.308-.72c.176-1.17.3-2.351.538-3.509.278-1.362.161-2.8,1.4-3.926,1.642-1.5,3.07-3.231,4.587-4.867a4.2,4.2,0,0,1,2-1.428c1.452-.376,2.887-.825,4.332-1.231,1-.281,2.147-2.135,1.8-3.126-2.4.551-4.8,1.079-7.194,1.667a3.183,3.183,0,0,0-1.882.766c-2.175,2.428-4.394,4.816-6.591,7.224a19.925,19.925,0,0,0-2.069,2.359c-2.2,3.357-4.326,6.766-6.483,10.152-1.1,1.718-2.2,3.43-3.3,5.146-.21.327-.291.555.171.827,1.337.79,2.63,1.657,3.939,2.5,1.5.964,3,1.931,4.519,2.907a16.648,16.648,0,0,0,1.12-1.747,1.614,1.614,0,0,1,1.491-.937,30.389,30.389,0,0,0,3.293-.487,8.077,8.077,0,0,0,4.058-2.567,8.422,8.422,0,0,1,4.482-2.459c1.542-.294,3.125-.384,4.692-.543.831-.084,1.668-.121,2.571-.184M32.775,220.7a14.248,14.248,0,0,0-1.506.252c-1.413.392-2.818.816-4.221,1.24a3.423,3.423,0,0,0-1.415.523c-1.609,1.628-3.09,3.385-4.72,4.99-.889.875-.69,1.935-.985,3.032a5.243,5.243,0,0,0,.54-.406c1.579-1.611,3.147-3.231,4.733-4.836a1.452,1.452,0,0,1,.648-.378c1.111-.274,2.227-.534,3.349-.759,1.976-.4,3.37-1.358,3.577-3.659" transform="translate(0 -204.251)" fill="#1a1818"/>
        <path id="Path_154" data-name="Path 154" d="M36.308,241.744c-.9.063-1.74.1-2.572.184-1.566.158-3.149.249-4.692.542a8.425,8.425,0,0,0-4.482,2.46A8.075,8.075,0,0,1,20.5,247.5a30.239,30.239,0,0,1-3.293.487,1.615,1.615,0,0,0-1.49.938,16.716,16.716,0,0,1-1.12,1.747c-1.516-.976-3.017-1.943-4.519-2.907-1.309-.839-2.6-1.705-3.939-2.495-.461-.273-.38-.5-.17-.828,1.1-1.715,2.207-3.427,3.3-5.145,2.158-3.387,4.282-6.8,6.483-10.152a19.974,19.974,0,0,1,2.07-2.359c2.2-2.407,4.416-4.8,6.592-7.223a3.172,3.172,0,0,1,1.882-.766c2.39-.588,4.795-1.116,7.194-1.668.346.992-.8,2.846-1.8,3.127-1.444.406-2.879.854-4.331,1.231a4.191,4.191,0,0,0-2,1.428c-1.517,1.636-2.946,3.368-4.588,4.867-1.236,1.128-1.12,2.563-1.4,3.926-.236,1.158-.362,2.338-.538,3.509a.6.6,0,0,0,.308.721c1.546.924,3.1,1.846,4.577,2.869a3.732,3.732,0,0,0,2.467.367c1.515-.032,3.027-.165,4.542-.217a11.683,11.683,0,0,1,2.588.061,3.952,3.952,0,0,1,2.984,2.729" transform="translate(-2.017 -205.908)" fill="#fff"/>
        <path id="Path_155" data-name="Path 155" d="M43.391,225.151c-.207,2.3-1.6,3.263-3.577,3.659-1.122.225-2.238.485-3.349.759a1.452,1.452,0,0,0-.648.378c-1.585,1.6-3.154,3.225-4.733,4.836a5.243,5.243,0,0,1-.54.406c.295-1.1.1-2.157.985-3.032,1.63-1.6,3.111-3.361,4.72-4.99a3.423,3.423,0,0,1,1.415-.523c1.4-.424,2.808-.847,4.221-1.24a14.248,14.248,0,0,1,1.506-.252" transform="translate(-10.616 -208.698)" fill="#fff"/>
        <path id="Path_156" data-name="Path 156" d="M54.035,233.24c.677-.5,1.328-.983,1.978-1.467q1.469-1.094,2.936-2.191,1.649-1.227,3.3-2.453c1.155-.863,2.307-1.73,3.464-2.59a.713.713,0,0,1,1.007.159.657.657,0,0,1-.189.947q-2.989,2.239-5.979,4.477c-1.459,1.086-2.928,2.158-4.39,3.241-.418.309-.826.63-1.287.981.371.056.692.106,1.013.153q.921.135,1.842.267c.174.025.349.042.521.072a.694.694,0,0,1,.566.782.706.706,0,0,1-.811.582c-.834-.129-1.672-.236-2.507-.358s-1.675-.258-2.514-.378a.718.718,0,0,1-.573-.845c.08-.627.186-1.251.283-1.875.092-.6.187-1.193.278-1.789.06-.386.126-.771.172-1.159a.741.741,0,0,1,.565-.7.649.649,0,0,1,.731.313.669.669,0,0,1,.088.4c-.095.759-.208,1.516-.317,2.272-.055.374-.114.748-.176,1.157" transform="translate(-18.214 -208.436)" fill="#1a1818"/>
        <rect id="Rectangle_45" data-name="Rectangle 45" width="5.059" height="5.059" transform="matrix(0.319, -0.948, 0.948, 0.319, 55.83, 18.434)" fill="none" stroke="#000001" stroke-miterlimit="10" stroke-width="1"/>
      </g>
      <g id="Group_101" data-name="Group 101" transform="translate(186.415 254.441)">
        <path id="Path_157" data-name="Path 157" d="M303.2,219.269a16.29,16.29,0,0,1,1.773-5.564,18.206,18.206,0,0,1,34.041,4.776,20.522,20.522,0,0,1,.365,4.024q.038,20.844.015,41.688a6.332,6.332,0,0,1-.013.7,1.4,1.4,0,0,1-1.422,1.382,1.363,1.363,0,0,1-1.367-1.5c-.012-3.555-.006-7.11-.006-10.665q0-16.085-.007-32.169a15.423,15.423,0,0,0-30.431-3.425c-.137.579-.331.8-.914.761-.637-.041-1.279-.009-2.035-.009" transform="translate(-245.799 -201.288)" fill="#fff"/>
        <rect id="Rectangle_46" data-name="Rectangle 46" width="5.059" height="5.059" transform="matrix(0.319, -0.948, 0.948, 0.319, 56.116, 17.705)" fill="#00549b"/>
        <rect id="Rectangle_47" data-name="Rectangle 47" width="5.059" height="5.059" transform="matrix(0.319, -0.948, 0.948, 0.319, 56.116, 17.705)" fill="none" stroke="#000001" stroke-miterlimit="10" stroke-width="1"/>
        <path id="Path_158" data-name="Path 158" d="M300.515,218.252c4.549,1.533,7.342,4.457,8.189,9.137a1.182,1.182,0,0,0,.618.71,4.09,4.09,0,0,1-1.644,7.894q-11.677.01-23.354,0a4.066,4.066,0,0,1-4.134-3.365,4.152,4.152,0,0,1,2.457-4.512,1.24,1.24,0,0,0,.613-.781,11.177,11.177,0,0,1,8.671-9.122.807.807,0,0,0,.742-.772c1.614-8.33,6.4-13.985,14.494-16.567a20.641,20.641,0,0,1,26.342,16.144,19.037,19.037,0,0,1,.329,3.143q.033,21.636.015,43.271a3.889,3.889,0,0,1-7.622,1.206,6.977,6.977,0,0,1-.159-1.83q-.013-20.842-.009-41.684a12.924,12.924,0,0,0-25.453-3.558,6.721,6.721,0,0,0-.1.689m-5.339-.339c.756,0,1.4-.032,2.035.009.583.038.777-.181.914-.761a15.423,15.423,0,0,1,30.431,3.425c.022,10.723.006,21.447.007,32.17,0,3.555-.007,7.109.006,10.665a1.363,1.363,0,0,0,1.367,1.5,1.4,1.4,0,0,0,1.422-1.382,6.335,6.335,0,0,0,.013-.7q0-20.844-.015-41.688a20.517,20.517,0,0,0-.365-4.024,18.206,18.206,0,0,0-34.041-4.776,16.285,16.285,0,0,0-1.773,5.564m-9.386,9.836h20.345a8.2,8.2,0,0,0-6.576-7.053,32.211,32.211,0,0,0-5.347-.217,8.5,8.5,0,0,0-8.422,7.27m10.274,2.6h-8.279c-1.2,0-2.407-.018-3.611.008a1.548,1.548,0,0,0-.267,3.067,4.671,4.671,0,0,0,.961.069q5.945.006,11.891,0c3.523,0,7.046.01,10.569-.012a2.963,2.963,0,0,0,1.345-.292,1.389,1.389,0,0,0,.636-1.754,1.525,1.525,0,0,0-1.619-1.093c-3.875.01-7.75,0-11.626,0" transform="translate(-237.773 -199.932)" fill="#1a1818"/>
        <path id="Path_159" data-name="Path 159" d="M288.816,238.69a8.5,8.5,0,0,1,8.422-7.271,32.214,32.214,0,0,1,5.347.217,8.2,8.2,0,0,1,6.576,7.053Z" transform="translate(-240.799 -210.872)" fill="#fff"/>
        <path id="Path_160" data-name="Path 160" d="M297.418,246.552c3.875,0,7.751.006,11.626,0a1.526,1.526,0,0,1,1.619,1.093,1.389,1.389,0,0,1-.636,1.754,2.962,2.962,0,0,1-1.345.291c-3.523.023-7.046.012-10.569.012q-5.945,0-11.89,0a4.67,4.67,0,0,1-.961-.068,1.548,1.548,0,0,1,.267-3.067c1.2-.027,2.407-.008,3.611-.008h8.279" transform="translate(-239.127 -216.133)" fill="#fff"/>
        <path id="Path_161" data-name="Path 161" d="M248.593,211.985a6.453,6.453,0,0,1,.4,5.465c.9-.346,1.084.194,1.268.785a6.234,6.234,0,0,1-1.974,6.935,7.487,7.487,0,0,1-3.023,1.3c-.846.217-1.7.389-2.537.646a2.758,2.758,0,0,0-1.091.611c-1.694,1.658-3.356,3.348-5.025,5.031a4.62,4.62,0,0,0-.345.449,13.185,13.185,0,0,0,1.934,1.158,4.209,4.209,0,0,0,1.645.119c2.113-.065,4.229-.271,6.338-.214a6.551,6.551,0,0,1,6.053,5.6c.094.744.13,1.495.2,2.287-1.581.116-3.132.206-4.679.35-1.687.159-3.376.321-5.051.571a5.8,5.8,0,0,0-3.289,1.912,10.414,10.414,0,0,1-6.222,3.278,7.217,7.217,0,0,1-1.411.2c-.628-.038-.9.288-1.183.758-.536.9-1.117,1.779-1.685,2.662a4.228,4.228,0,0,1-.307.375l-13.383-8.542c1.405-2.209,2.776-4.368,4.151-6.525,2.437-3.824,4.836-7.673,7.338-11.455a27.476,27.476,0,0,1,2.741-3.184c1.5-1.653,3.04-3.277,4.556-4.919.857-.928,1.66-1.91,2.573-2.778a2.965,2.965,0,0,1,1.348-.484q5.06-1.166,10.126-2.3c.2-.044.395-.066.541-.089m-20.787,36.657a16.765,16.765,0,0,0,1.12-1.747,1.616,1.616,0,0,1,1.493-.933,30.549,30.549,0,0,0,3.292-.489,8.1,8.1,0,0,0,4.058-2.569,8.418,8.418,0,0,1,4.484-2.457c1.543-.291,3.125-.382,4.692-.541.831-.084,1.667-.122,2.567-.185a3.99,3.99,0,0,0-3.044-2.753,11.7,11.7,0,0,0-2.593-.038c-1.495.055-2.987.2-4.482.212a3.555,3.555,0,0,1-2.358-.318c-1.512-1.045-3.1-1.976-4.686-2.916a.593.593,0,0,1-.3-.724c.177-1.17.3-2.352.538-3.51.28-1.362.16-2.8,1.4-3.926,1.645-1.5,3.057-3.245,4.6-4.86a3.621,3.621,0,0,1,1.828-1.362c1.29-.28,2.544-.72,3.821-1.063a3.272,3.272,0,0,0,2.513-3.389q-3.741.882-7.472,1.762a2.782,2.782,0,0,0-1.652.7c-2.166,2.41-4.369,4.787-6.552,7.181a20.882,20.882,0,0,0-2.109,2.4c-1.932,2.92-3.778,5.9-5.661,8.85q-2.058,3.228-4.127,6.45c-.211.331-.27.551.178.825,1.9,1.161,3.756,2.381,5.629,3.581.939.6,1.877,1.205,2.829,1.816M248,220.332a14.51,14.51,0,0,0-1.511.254c-1.413.393-2.818.816-4.222,1.242a3.431,3.431,0,0,0-1.414.523c-1.608,1.629-3.089,3.387-4.719,4.992-.889.875-.692,1.931-.981,3.029a5.329,5.329,0,0,0,.539-.408c1.579-1.611,3.148-3.233,4.733-4.837a1.452,1.452,0,0,1,.65-.375c1.112-.273,2.227-.533,3.35-.759,1.977-.4,3.365-1.362,3.575-3.659" transform="translate(-215.219 -204.121)" fill="#1a1818"/>
        <path id="Path_162" data-name="Path 162" d="M229.825,250.286c-.952-.611-1.89-1.214-2.829-1.816-1.872-1.2-3.733-2.42-5.628-3.581-.448-.274-.389-.495-.178-.825q2.063-3.226,4.127-6.45c1.883-2.953,3.729-5.93,5.661-8.85a20.819,20.819,0,0,1,2.109-2.4c2.183-2.394,4.386-4.771,6.552-7.181a2.786,2.786,0,0,1,1.651-.7q3.733-.885,7.472-1.762a3.272,3.272,0,0,1-2.513,3.389c-1.277.343-2.531.783-3.821,1.063a3.618,3.618,0,0,0-1.828,1.363c-1.54,1.614-2.953,3.363-4.6,4.859-1.24,1.128-1.12,2.563-1.4,3.926-.238,1.158-.361,2.34-.538,3.51a.594.594,0,0,0,.3.724c1.581.941,3.173,1.872,4.685,2.916a3.554,3.554,0,0,0,2.359.318c1.495-.016,2.987-.157,4.482-.211a11.657,11.657,0,0,1,2.593.038,3.99,3.99,0,0,1,3.044,2.753c-.9.063-1.735.1-2.567.185-1.567.159-3.149.25-4.692.541a8.414,8.414,0,0,0-4.484,2.458,8.107,8.107,0,0,1-4.058,2.569,30.561,30.561,0,0,1-3.293.489,1.616,1.616,0,0,0-1.492.933,16.763,16.763,0,0,1-1.12,1.747" transform="translate(-217.238 -205.766)" fill="#fff"/>
        <path id="Path_163" data-name="Path 163" d="M258.616,224.779c-.21,2.3-1.6,3.263-3.575,3.659-1.122.226-2.238.485-3.35.759a1.453,1.453,0,0,0-.65.375c-1.585,1.6-3.154,3.226-4.733,4.837a5.333,5.333,0,0,1-.539.408c.288-1.1.092-2.154.981-3.029,1.63-1.6,3.111-3.363,4.719-4.992a3.431,3.431,0,0,1,1.414-.523c1.4-.425,2.809-.849,4.222-1.242a14.51,14.51,0,0,1,1.511-.254" transform="translate(-225.837 -208.568)" fill="#fff"/>
        <path id="Path_164" data-name="Path 164" d="M276.8,225.088c-.661.431-1.267.824-1.871,1.22q-2.293,1.5-4.585,3.006-1.708,1.118-3.42,2.229c-.789.512-1.583,1.016-2.374,1.524a.68.68,0,1,1-.715-1.156q1.891-1.242,3.789-2.475,1.562-1.022,3.122-2.046,2.283-1.5,4.567-2.989c.226-.147.457-.286.739-.461-.854-.175-1.642-.331-2.426-.5a7.138,7.138,0,0,1-1.133-.3.615.615,0,0,1-.286-.824.694.694,0,0,1,.764-.424q2.5.51,4.991,1.024a.734.734,0,0,1,.521.888q-.5,2.353-.987,4.709c-.093.452-.271.671-.635.738a.675.675,0,0,1-.781-.751c.147-.754.319-1.5.479-2.254.078-.365.154-.731.242-1.152" transform="translate(-232.003 -207.559)" fill="#1a1818"/>
      </g>
    </g>
  </g>
</svg>
