<svg id="Group_112" data-name="Group 112" xmlns="http://www.w3.org/2000/svg" xmlns:xlink="http://www.w3.org/1999/xlink" width="73.448" height="126.238" viewBox="0 0 73.448 126.238">
  <defs>
    <clipPath id="clip-path">
      <rect id="Rectangle_57" data-name="Rectangle 57" width="73.448" height="126.238" fill="none"/>
    </clipPath>
  </defs>
  <rect id="Rectangle_53" data-name="Rectangle 53" width="61.266" height="96.802" transform="translate(6.091 13.6)" fill="#fff"/>
  <g id="Group_111" data-name="Group 111">
    <g id="Group_110" data-name="Group 110" clip-path="url(#clip-path)">
      <path id="Path_182" data-name="Path 182" d="M42.021,150.866a4.214,4.214,0,1,1,8.427.053,4.213,4.213,0,1,1-8.427-.053" transform="translate(-9.511 -33.192)" fill="#fff"/>
      <path id="Path_183" data-name="Path 183" d="M71.07,2.676A10.839,10.839,0,0,0,66.316,0H7.132A22.991,22.991,0,0,0,4.958.815C1.467,2.581,0,5.529,0,9.345Q.021,63.1,0,116.833c0,.258,0,.5.014.747.176,4.972,3.749,8.626,8.6,8.639q28.1.041,56.223-.027a9.125,9.125,0,0,0,3.776-.9c3.437-1.657,4.822-4.619,4.822-8.327V60.991q0-25.816.014-51.646A9.391,9.391,0,0,0,71.07,2.676M36.689,121.928a4.2,4.2,0,0,1-4.183-4.252,4.211,4.211,0,1,1,8.421.054,4.192,4.192,0,0,1-4.238,4.2m30.659-11.519H6.072V13.6H67.348Z" fill="#1a1818"/>
      <path id="Path_184" data-name="Path 184" d="M54.152,10H34.843a.5.5,0,0,1-.5-.5V8.438a.5.5,0,0,1,.5-.5H54.152a.5.5,0,0,1,.5.5V9.5a.5.5,0,0,1-.5.5" transform="translate(-7.774 -1.797)" fill="#fff"/>
      <path id="Path_185" data-name="Path 185" d="M50.523,36.779a28.588,28.588,0,0,1-5.388-8.153c-.238-.6-.447-1.218-.626-1.841,0,0-.52.522-1.332,1.419-2.746,3.043-8.78,10.4-8.78,16.3A10.366,10.366,0,0,0,44.51,55.142,10.384,10.384,0,0,0,54.621,44.508c0-2.931-1.89-5.146-4.1-7.729Zm-10.858,5.04-1.23-.672a20.129,20.129,0,0,1,2.88-4.674l.971,1.059a18.662,18.662,0,0,0-2.622,4.285Z" transform="translate(-7.785 -6.063)" fill="#009cdc" fill-rule="evenodd"/>
      <rect id="Rectangle_54" data-name="Rectangle 54" width="37.779" height="6.748" rx="0.867" transform="translate(24.131 65.076)" fill="none" stroke="#c3c4c5" stroke-miterlimit="10" stroke-width="1"/>
      <path id="Path_186" data-name="Path 186" d="M12.217,86.857a5.437,5.437,0,1,1,10.874.069,5.437,5.437,0,1,1-10.874-.069" transform="translate(-2.765 -18.427)" fill="#5a5b5e"/>
      <path id="Path_187" data-name="Path 187" d="M55.416,89.79H33.669A.673.673,0,0,1,33,89.119V86.745a.673.673,0,0,1,.671-.671H55.416a.673.673,0,0,1,.671.671v2.374a.673.673,0,0,1-.671.671" transform="translate(-7.469 -19.482)" fill="#009cdc" fill-rule="evenodd"/>
      <rect id="Rectangle_55" data-name="Rectangle 55" width="37.779" height="6.748" rx="0.867" transform="translate(24.131 80.258)" fill="none" stroke="#c3c4c5" stroke-miterlimit="10" stroke-width="1"/>
      <path id="Path_188" data-name="Path 188" d="M12.217,106.48a5.437,5.437,0,1,1,10.874.069,5.437,5.437,0,1,1-10.874-.069" transform="translate(-2.765 -22.869)" fill="#5a5b5e"/>
      <path id="Path_189" data-name="Path 189" d="M46.31,109.414H33.669a.673.673,0,0,1-.671-.671v-2.374a.673.673,0,0,1,.671-.671H46.31a.673.673,0,0,1,.671.671v2.374a.673.673,0,0,1-.671.671" transform="translate(-7.469 -23.923)" fill="#009cdc" fill-rule="evenodd"/>
      <rect id="Rectangle_56" data-name="Rectangle 56" width="37.779" height="6.748" rx="0.867" transform="translate(24.131 95.44)" fill="none" stroke="#c3c4c5" stroke-miterlimit="10" stroke-width="1"/>
      <path id="Path_190" data-name="Path 190" d="M12.217,126.1a5.437,5.437,0,1,1,10.874.069,5.437,5.437,0,1,1-10.874-.069" transform="translate(-2.765 -27.31)" fill="#5a5b5e"/>
      <path id="Path_191" data-name="Path 191" d="M37.56,129.038H33.669a.673.673,0,0,1-.671-.671v-2.374a.673.673,0,0,1,.671-.671H37.56a.673.673,0,0,1,.671.671v2.374a.673.673,0,0,1-.671.671" transform="translate(-7.469 -28.365)" fill="#009cdc" fill-rule="evenodd"/>
    </g>
  </g>
</svg>
