<svg xmlns="http://www.w3.org/2000/svg" width="308" height="516" viewBox="0 0 308 516">
  <g id="Group_204" data-name="Group 204" transform="translate(-16 -160)">
    <rect id="Rectangle_85" data-name="Rectangle 85" width="308" height="516" rx="26" transform="translate(16 160)" fill="#fff"/>
    <rect id="Rectangle_66" data-name="Rectangle 66" width="34" height="279" rx="8" transform="translate(69 298)" fill="#195da3"/>
    <rect id="Rectangle_83" data-name="Rectangle 83" width="33" height="222" rx="8" transform="translate(162 355)" fill="#195da3"/>
    <rect id="Rectangle_84" data-name="Rectangle 84" width="34" height="101" rx="9" transform="translate(252 476)" fill="#195da3"/>
    <text id="Oktober" transform="matrix(0.809, -0.588, 0.588, 0.809, 48.405, 649.563)" fill="#1a1a1a" font-size="16" font-family="Inter" font-weight="500"><tspan x="0" y="0">Oktober</tspan></text>
    <text id="November" transform="matrix(0.809, -0.588, 0.588, 0.809, 126.405, 654.555)" fill="#1a1a1a" font-size="16" font-family="Inter" font-weight="500"><tspan x="0" y="0">November</tspan></text>
    <text id="December" transform="matrix(0.809, -0.588, 0.588, 0.809, 217.405, 654.555)" fill="#1a1a1a" font-size="16" font-family="Inter" font-weight="500"><tspan x="0" y="0">December</tspan></text>
    <text id="_560_L" data-name="560 L" transform="translate(64 289)" fill="#1a1a1a" font-size="16" font-family="Inter" font-weight="500"><tspan x="0" y="0">560 L</tspan></text>
    <text id="_515_L" data-name="515 L" transform="translate(157 345)" fill="#1a1a1a" font-size="16" font-family="Inter" font-weight="500"><tspan x="0" y="0">515 L</tspan></text>
    <text id="_105_L" data-name="105 L" transform="translate(249 467)" fill="#1a1a1a" font-size="16" font-family="Inter" font-weight="500"><tspan x="0" y="0">105 L</tspan></text>
    <g id="Group_202" data-name="Group 202" transform="translate(0 60)">
      <rect id="Rectangle_86" data-name="Rectangle 86" width="6" height="401" rx="3" transform="translate(34 130)" fill="#1a1a1a"/>
      <rect id="Rectangle_87" data-name="Rectangle 87" width="6" height="272" rx="3" transform="translate(306 525) rotate(90)" fill="#1a1a1a"/>
    </g>
  </g>
</svg>
