<svg xmlns="http://www.w3.org/2000/svg" width="60" height="46" viewBox="0 0 60 46">
  <g id="Group_147" data-name="Group 147" transform="translate(-140 -753)">
    <g id="Group_135" data-name="Group 135" transform="translate(-1684 293)">
      <rect id="Rectangle_59" data-name="Rectangle 59" width="60" height="46" rx="17" transform="translate(1824 460)" fill="#28abe2"/>
    </g>
    <g id="droplet" transform="translate(156 759)">
      <path id="Path_11" data-name="Path 11" d="M12.68,1.64C13.664.6,14.3,0,14.3,0a22.166,22.166,0,0,0,.761,2.128,32.979,32.979,0,0,0,6.554,9.43C24.3,14.546,26.6,17.107,26.6,20.5A12.3,12.3,0,0,1,2,20.5C2,13.669,9.339,5.16,12.68,1.64Zm.847,2.093Q11.552,5.87,9.778,8.179A39.412,39.412,0,0,0,5.76,14.473,14.183,14.183,0,0,0,4.05,20.5a10.25,10.25,0,0,0,20.5,0c0-2.462-1.632-4.422-4.471-7.585l-.061-.066a36.266,36.266,0,0,1-6.49-9.118Z" fill="#fff" fill-rule="evenodd"/>
      <path id="Path_12" data-name="Path 12" d="M4.553,11.062A27.253,27.253,0,0,1,8.844,4.646L10.295,6.1a25.34,25.34,0,0,0-3.909,5.883Z" transform="translate(2.681 4.878)" fill="#fff" fill-rule="evenodd"/>
    </g>
  </g>
</svg>
