<svg xmlns="http://www.w3.org/2000/svg" width="31.867" height="22.305" viewBox="0 0 31.867 22.305">
  <path id="Icon_awesome-users-cog" data-name="Icon awesome-users-cog" d="M30.4,17.655a5.842,5.842,0,0,0,0-2.121l1.285-.742a.361.361,0,0,0,.164-.423A7.473,7.473,0,0,0,30.2,11.509a.363.363,0,0,0-.448-.07l-1.285.742a5.847,5.847,0,0,0-1.838-1.061V9.637a.363.363,0,0,0-.284-.354,7.513,7.513,0,0,0-3.3,0,.363.363,0,0,0-.284.354v1.484a5.847,5.847,0,0,0-1.838,1.061L19.64,11.44a.364.364,0,0,0-.448.07,7.473,7.473,0,0,0-1.653,2.858.367.367,0,0,0,.164.423l1.285.742a5.842,5.842,0,0,0,0,2.121L17.7,18.4a.361.361,0,0,0-.164.423,7.51,7.51,0,0,0,1.653,2.858.363.363,0,0,0,.448.07l1.285-.742a5.847,5.847,0,0,0,1.838,1.061v1.484a.363.363,0,0,0,.284.354,7.513,7.513,0,0,0,3.3,0,.363.363,0,0,0,.284-.354V22.067a5.847,5.847,0,0,0,1.838-1.061l1.285.742a.364.364,0,0,0,.448-.07,7.473,7.473,0,0,0,1.653-2.858.367.367,0,0,0-.164-.423L30.4,17.655Zm-5.7,1.355a2.415,2.415,0,1,1,2.415-2.415A2.417,2.417,0,0,1,24.7,19.009Zm-19.919-7.2A3.187,3.187,0,1,0,1.594,8.626,3.19,3.19,0,0,0,4.781,11.813Zm11.155,1.594c.095,0,.184-.025.279-.03a9.18,9.18,0,0,1,1.808-2.948A1.963,1.963,0,0,1,19.461,9.8a1.914,1.914,0,0,1,.976.264l.393.229c.04-.025.08-.045.12-.07a5.512,5.512,0,0,0,.558-2.39,5.575,5.575,0,1,0-5.572,5.572Zm5.239,9.686c-.115-.06-.229-.129-.339-.194a2.46,2.46,0,0,1-1.369.488,1.979,1.979,0,0,1-1.439-.627,9.08,9.08,0,0,1-2-3.466,2.125,2.125,0,0,1,1.285-2.5q-.007-.194,0-.388l-.393-.229a2.028,2.028,0,0,1-.488-.4c-.164.01-.324.03-.488.03a7.861,7.861,0,0,1-3.411-.8h-.413a5.739,5.739,0,0,0-5.742,5.737v1.434a2.391,2.391,0,0,0,2.39,2.39H21.483a1.917,1.917,0,0,1-.309-1.011v-.458ZM8.62,14.333a3.178,3.178,0,0,0-2.246-.926H3.187A3.19,3.19,0,0,0,0,16.594v1.594a1.592,1.592,0,0,0,1.594,1.594H4.875A7.3,7.3,0,0,1,8.62,14.333Z" transform="translate(0 -2.257)" fill="#195da3"/>
</svg>
