<svg xmlns="http://www.w3.org/2000/svg" width="33.605" height="33.61" viewBox="0 0 33.605 33.61">
  <g id="Layer_1" data-name="Layer 1" transform="translate(0 0)">
    <g id="Group_171" data-name="Group 171" transform="translate(0 0)">
      <path id="Path_243" data-name="Path 243" d="M33.6,15.687a1.123,1.123,0,0,0-.077.132,1.336,1.336,0,0,1-1.473.838,1.318,1.318,0,0,1-1.073-1.371c0-2.407,0-4.813,0-7.22a2.6,2.6,0,0,0-1.489-2.528,3.017,3.017,0,0,0-1.068-.27c-.575-.044-1.155-.012-1.775-.012,0,.414,0,.815,0,1.215a1.314,1.314,0,1,1-2.622-.011c0-.391,0-.783,0-1.193H18.048c0,.433.007.876,0,1.319a1.311,1.311,0,0,1-2.039,1.068,1.228,1.228,0,0,1-.579-1.046c-.008-.436,0-.873,0-1.334H9.516c0,.409,0,.82,0,1.232a1.313,1.313,0,1,1-2.622-.013c0-.4,0-.8,0-1.283a15.42,15.42,0,0,0-2.269.152,2.562,2.562,0,0,0-2,2.685q-.006,3.4,0,6.794,0,6.663,0,13.325a2.557,2.557,0,0,0,1.489,2.524,3.369,3.369,0,0,0,1.359.284c3.259.023,6.519.012,9.778.014a1.312,1.312,0,0,1,1.338,1.073,1.336,1.336,0,0,1-.838,1.473,1.122,1.122,0,0,0-.132.077H4.595a.856.856,0,0,0-.175-.066A5.232,5.232,0,0,1,.009,28.533Q-.013,18.112.015,7.691A4.787,4.787,0,0,1,.277,6.217a5.208,5.208,0,0,1,5-3.592c.532,0,1.064,0,1.618,0,0-.433,0-.825,0-1.217a1.314,1.314,0,1,1,2.622,0c0,.4,0,.8,0,1.189h5.909c0-.432,0-.836,0-1.241a1.312,1.312,0,1,1,2.623,0c0,.412,0,.824,0,1.242h5.975V2.258c0-.35-.012-.7.006-1.05a1.31,1.31,0,0,1,2.612.007c.018.464,0,.93,0,1.411.63,0,1.21-.018,1.788,0a5.1,5.1,0,0,1,4.62,2.93,10.826,10.826,0,0,1,.552,1.66v8.468Z" transform="translate(0 0)" fill="#28abe2"/>
      <path id="Path_244" data-name="Path 244" d="M222.67,231.394c-.4-.087-.813-.151-1.208-.265a7.69,7.69,0,0,1-5.779-6.113,7.893,7.893,0,0,1,5.991-9.306,7.973,7.973,0,0,1,8.868,4.153,8.089,8.089,0,0,1,.795,2.617.911.911,0,0,0,.062.183v1.576c-.053.276-.094.556-.161.829a7.875,7.875,0,0,1-5.88,6.089c-.364.1-.741.159-1.112.237H222.67Zm.792-13.26a5.317,5.317,0,1,0,5.311,5.338A5.352,5.352,0,0,0,223.462,218.134Z" transform="translate(-197.794 -197.786)" fill="#28abe2"/>
      <path id="Path_245" data-name="Path 245" d="M85.165,154.36a1.311,1.311,0,1,1,1.327-1.288,1.3,1.3,0,0,1-1.327,1.288Z" transform="translate(-76.976 -139.265)" fill="#28abe2"/>
      <path id="Path_246" data-name="Path 246" d="M154.642,154.362a1.311,1.311,0,1,1,1.309-1.3,1.3,1.3,0,0,1-1.309,1.3Z" transform="translate(-140.727 -139.267)" fill="#28abe2"/>
      <path id="Path_247" data-name="Path 247" d="M225.411,153.06a1.311,1.311,0,1,1-1.294-1.321,1.3,1.3,0,0,1,1.294,1.321Z" transform="translate(-204.476 -139.267)" fill="#28abe2"/>
      <path id="Path_248" data-name="Path 248" d="M294.89,153.06a1.311,1.311,0,1,1-1.293-1.32A1.3,1.3,0,0,1,294.89,153.06Z" transform="translate(-268.245 -139.267)" fill="#28abe2"/>
      <path id="Path_249" data-name="Path 249" d="M86.481,222.533a1.311,1.311,0,1,1-1.3-1.313A1.3,1.3,0,0,1,86.481,222.533Z" transform="translate(-76.966 -203.036)" fill="#28abe2"/>
      <path id="Path_250" data-name="Path 250" d="M154.656,221.211a1.311,1.311,0,1,1-1.317,1.3,1.3,1.3,0,0,1,1.317-1.3Z" transform="translate(-140.735 -203.027)" fill="#28abe2"/>
      <path id="Path_251" data-name="Path 251" d="M85.176,290.691A1.311,1.311,0,1,1,83.87,292a1.3,1.3,0,0,1,1.306-1.307Z" transform="translate(-76.976 -266.796)" fill="#28abe2"/>
      <path id="Path_252" data-name="Path 252" d="M154.649,293.322a1.311,1.311,0,1,1,1.3-1.312A1.3,1.3,0,0,1,154.649,293.322Z" transform="translate(-140.726 -266.805)" fill="#28abe2"/>
      <path id="Path_253" data-name="Path 253" d="M298.815,266.242c.238,0,.444-.006.649,0a1.31,1.31,0,0,1-.009,2.617q-1,.017-2,0A1.278,1.278,0,0,1,296.2,267.6q-.018-1.394,0-2.789a1.308,1.308,0,0,1,2.615,0c.011.467,0,.935,0,1.434Z" transform="translate(-271.842 -241.886)" fill="#28abe2"/>
    </g>
  </g>
</svg>
