<svg xmlns="http://www.w3.org/2000/svg" xmlns:xlink="http://www.w3.org/1999/xlink" width="215.097" height="134.07" viewBox="0 0 215.097 134.07">
  <defs>
    <linearGradient id="linear-gradient" x1="-2.153" y1="-1.04" x2="-3.625" y2="1.999" gradientUnits="objectBoundingBox">
      <stop offset="0" stop-color="#2baae2"/>
      <stop offset="0.06" stop-color="#4fb8e6" stop-opacity="0.831"/>
      <stop offset="0.14" stop-color="#78c9ec" stop-opacity="0.631"/>
      <stop offset="0.22" stop-color="#9cd7f1" stop-opacity="0.459"/>
      <stop offset="0.31" stop-color="#bbe3f5" stop-opacity="0.322"/>
      <stop offset="0.41" stop-color="#d4edf9" stop-opacity="0.2"/>
      <stop offset="0.51" stop-color="#e7f5fb" stop-opacity="0.11"/>
      <stop offset="0.63" stop-color="#f4fafd" stop-opacity="0.051"/>
      <stop offset="0.77" stop-color="#fcfefe" stop-opacity="0.012"/>
      <stop offset="1" stop-color="#fff" stop-opacity="0"/>
    </linearGradient>
  </defs>
  <g id="Layer_1" data-name="Layer 1" transform="translate(0.002)">
    <g id="Group_170" data-name="Group 170" transform="translate(-0.002)">
      <g id="Group_166" data-name="Group 166" transform="translate(107.572)">
        <path id="Path_221" data-name="Path 221" d="M127.532,0c1.9.42,3.85.684,5.7,1.259,14.021,4.366,22.261,13.877,24.84,28.294a30.88,30.88,0,0,1,.336,5.481q.036,28.48.012,56.96v1.787h2.591c1.739.012,2.291.54,2.3,2.255.024,2.483,0,4.978,0,7.46v1.523h7.568a.7.7,0,0,0,.372-.108c2.039-1.451,4.366-1.631,6.753-1.559a7.721,7.721,0,0,0,.78-.108v-19.9c0-1.943.456-2.387,2.375-2.4h4.186c1.787,0,2.339.552,2.339,2.363v19.946c.756.156,1.439.252,2.1.42a9.851,9.851,0,0,1,7.388,10.747,9.6,9.6,0,0,1-8.876,8.66c-4.354.228-8.72.048-13.086,0a3.432,3.432,0,0,1-1.883-.456c-2.027-1.415-4.306-1.127-6.549-1.139h-3.442v10.363c0,1.679-.528,2.219-2.159,2.219H141.793c-1.655,0-2.195-.528-2.195-2.183V96.013c0-1.679.588-2.231,2.315-2.243h2.639V34.795A20.524,20.524,0,0,0,126.417,13.9c-10.231-1.451-20.81,6.165-22.429,16.432-.552,3.466-.36,7.041-.456,10.567-.06,2.375-.4,2.759-2.723,2.759H91.778c-1.067,0-2.015-.336-2.027-1.547-.024-5.445-.408-10.9,1-16.264A34.455,34.455,0,0,1,120,.24a4.016,4.016,0,0,0,.732-.24h6.813Zm27.658,93.746v-1.4q0-28.678-.012-57.356a38.027,38.027,0,0,0-.372-5.217C152.576,13.206,136.78,1.055,120.144,3.49c-13.277,1.943-21.973,9.667-26.051,22.477a23.7,23.7,0,0,0-1.1,7.964h7.232c.108-.96.216-1.823.324-2.687,1.847-15.9,19.586-25.511,33.9-18.219C143.389,17.583,147.79,25.1,147.8,35.143q.036,28.48,0,56.96c0,.54.048,1.091.072,1.655h7.3Zm-12.21,31.545H160v-3.67c-5.265-1.487-7.7-3.958-7.856-7.832a8.279,8.279,0,0,1,1.415-5.193,8.658,8.658,0,0,1,6.429-3.634v-2.039h-17.08v21.314c0,.3.036.6.072,1.043Zm37.674-12.066a6.591,6.591,0,0,0,6.645,6.741,6.7,6.7,0,0,0,.108-13.4,6.6,6.6,0,0,0-6.753,6.645ZM168.18,118.31a11,11,0,0,1-.1-9.871,1.668,1.668,0,0,0-.444-.144c-2.4,0-4.786-.06-7.184,0a5,5,0,1,0-.192,9.991c2.555.132,5.121.024,7.9.024Zm11.586,1.571c-3.166-4.846-3.178-7.352-.108-13.242-3.154-.252-6.285-.432-8.3,2.675a6.844,6.844,0,0,0-.144,7.652c1.967,3.334,5.193,3.166,8.552,2.927Zm2.315-35.635v18.987H184.3V84.247ZM142.969,99.467h17V97.14h-17Zm0,31.377h17.044v-2.183H142.969ZM100.27,37.29h-7.22v3h7.22Z" transform="translate(-89.685)"/>
        <path id="Path_222" data-name="Path 222" d="M154.651,93.219h-7.3c-.024-.564-.072-1.115-.072-1.655q0-28.48,0-56.96c-.012-10.039-4.414-17.559-13.361-22.117-14.321-7.292-32.06,2.315-33.9,18.219-.1.864-.2,1.727-.324,2.687H92.462a23.744,23.744,0,0,1,1.1-7.964c4.078-12.8,12.762-20.522,26.051-22.477,16.636-2.435,32.432,9.727,34.663,26.279a40.013,40.013,0,0,1,.372,5.217q.036,28.678.012,57.356v1.4Z" transform="translate(-89.134 0.527)" fill="#fff"/>
        <path id="Path_223" data-name="Path 223" d="M134.142,108.177c-.024-.444-.072-.744-.072-1.043V85.82h17.08v2.039a8.658,8.658,0,0,0-6.429,3.634,8.279,8.279,0,0,0-1.415,5.193c.156,3.874,2.591,6.345,7.856,7.832v3.67h-17.02Z" transform="translate(-80.834 17.113)" fill="#fff"/>
        <path id="Path_224" data-name="Path 224" d="M165.54,95.5a6.6,6.6,0,0,1,6.753-6.645,6.7,6.7,0,0,1-.108,13.4,6.591,6.591,0,0,1-6.645-6.741Z" transform="translate(-74.559 17.72)" fill="#fff"/>
        <path id="Path_225" data-name="Path 225" d="M157.28,100.31c-2.783,0-5.349.108-7.9-.024a5,5,0,1,1,.192-9.991c2.387-.06,4.786,0,7.184,0a1.813,1.813,0,0,1,.444.144,11.043,11.043,0,0,0,.1,9.871Z" transform="translate(-78.773 18)" fill="#fff"/>
        <path id="Path_226" data-name="Path 226" d="M166.4,102.173c-3.37.24-6.585.408-8.552-2.927A6.845,6.845,0,0,1,158,91.595c2.015-3.106,5.145-2.915,8.3-2.675-3.07,5.889-3.059,8.4.108,13.242Z" transform="translate(-76.311 17.708)" fill="#fff"/>
        <path id="Path_227" data-name="Path 227" d="M166.74,70.24h2.219V89.227H166.74Z" transform="translate(-74.32 14.007)" fill="#fff"/>
        <path id="Path_228" data-name="Path 228" d="M134.12,83.317V80.99h17v2.327Z" transform="translate(-80.824 16.15)" fill="#fff"/>
        <path id="Path_229" data-name="Path 229" d="M134.12,109.453V107.27h17.044v2.183Z" transform="translate(-80.824 21.391)" fill="#fff"/>
        <path id="Path_230" data-name="Path 230" d="M99.71,31.09v3H92.49v-3Z" transform="translate(-89.126 6.2)" fill="#1b5ea4"/>
      </g>
      <g id="Group_167" data-name="Group 167" transform="translate(92.069 26.327)">
        <path id="Path_231" data-name="Path 231" d="M88.035,55.665A24.4,24.4,0,0,1,80.61,21.95" transform="translate(-76.759 -21.95)" fill="none" stroke="#99cce9" stroke-linecap="round" stroke-miterlimit="10" stroke-width="2"/>
        <path id="Path_232" data-name="Path 232" d="M90.31,49.478A17.7,17.7,0,0,1,84.925,25.01" transform="translate(-75.689 -21.34)" fill="none" stroke="#99cce9" stroke-linecap="round" stroke-miterlimit="10" stroke-width="2"/>
      </g>
      <path id="Path_233" data-name="Path 233" d="M39.893,109.344c-11.85-4.2-23.652-8.372-35.5-12.57Q14.321,68.708,24.252,40.69c11.838,4.2,23.64,8.372,35.5,12.57q-9.913,28.03-19.862,56.084Z" transform="translate(0.878 8.114)" fill="#fff"/>
      <path id="Path_234" data-name="Path 234" d="M15.947,95.747a2.023,2.023,0,1,1-.012,0Z" transform="translate(3.15 18.749)" fill="#fff"/>
      <path id="Path_235" data-name="Path 235" d="M65.033,48.94a6.614,6.614,0,0,0-2.207-2.531L28.534,34.271a14.109,14.109,0,0,0-1.427.024,5.39,5.39,0,0,0-4.618,3.922Q11.479,69.378.432,100.5c-.048.144-.108.288-.144.432A5.245,5.245,0,0,0,3.5,107.7q16.264,5.793,32.588,11.514a5.483,5.483,0,0,0,2.375.252,5.2,5.2,0,0,0,4.5-3.838l11.49-32.432q5.289-14.951,10.6-29.925a5.816,5.816,0,0,0,0-4.354ZM20.654,110.985a2.583,2.583,0,0,1-1.547-3.322,2.588,2.588,0,1,1,4.87,1.751,2.575,2.575,0,0,1-3.322,1.559ZM40.78,110.6l-35.5-12.57,19.85-56.1,35.5,12.57L40.768,110.6Z" transform="translate(0.002 6.833)" fill="#231f20"/>
      <rect id="Rectangle_82" data-name="Rectangle 82" width="12.486" height="1.271" rx="0.2" transform="matrix(0.943, 0.334, -0.334, 0.943, 38.545, 48.653)" fill="#fff"/>
      <g id="Group_168" data-name="Group 168" transform="translate(24.795 68.39)">
        <path id="Path_236" data-name="Path 236" d="M20.67,58.723a16.989,16.989,0,0,1,22.7,7.892" transform="translate(-20.67 -57.02)" fill="none" stroke="#99cce9" stroke-linecap="round" stroke-miterlimit="10" stroke-width="1"/>
        <path id="Path_237" data-name="Path 237" d="M22.41,62a12.318,12.318,0,0,1,16.468,5.721" transform="translate(-20.323 -56.275)" fill="none" stroke="#99cce9" stroke-linecap="round" stroke-miterlimit="10" stroke-width="1"/>
      </g>
      <g id="Group_169" data-name="Group 169" transform="translate(26.737 79.229)">
        <path id="Path_238" data-name="Path 238" d="M23.636,68.97l.228.192h0a8.2,8.2,0,0,0,4.954,1.751,10.72,10.72,0,0,0,1.511-.048,13.806,13.806,0,0,0,2.783-.564c-.084.276-.18.552-.276.816A13.884,13.884,0,0,1,31.2,74.211c-.072.108-.156.216-.24.324a9.874,9.874,0,0,1-1.151,1.3l-6.537-2.315a11.342,11.342,0,0,1-.1-1.3,13.8,13.8,0,0,1,.3-2.711c.036-.168.072-.348.12-.516" transform="translate(-22.112 -65.475)" fill="#2baae2"/>
        <path id="Path_239" data-name="Path 239" d="M28.873,74.109a12.8,12.8,0,0,0,2.075-.372,9.874,9.874,0,0,1-1.151,1.3c-.084.084-.18.168-.276.252a9.61,9.61,0,0,1-1.9,1.331,14.865,14.865,0,0,1-1.4.648,1.067,1.067,0,0,1-1.583-.564,10.231,10.231,0,0,1-1.319-3.67,8.452,8.452,0,0,0,4.006,1.127h.54c.336,0,.672-.024,1.02-.048Z" transform="translate(-22.084 -64.666)" fill="#1172ba"/>
        <path id="Path_240" data-name="Path 240" d="M29.555,76.087a9.61,9.61,0,0,1-1.9,1.331,14.864,14.864,0,0,1-1.4.648,1.067,1.067,0,0,1-1.583-.564,10.231,10.231,0,0,1-1.319-3.67c-.012-.1-.036-.2-.048-.3a11.342,11.342,0,0,1-.1-1.3,13.8,13.8,0,0,1,.3-2.711c.036-.168.072-.348.12-.516a16.729,16.729,0,0,0,3.49,5.277,10.113,10.113,0,0,0,.768.684,4.935,4.935,0,0,0,.42.324,7.862,7.862,0,0,0,1.259.792Z" transform="translate(-22.106 -65.467)" fill="#010101"/>
        <path id="Path_241" data-name="Path 241" d="M23.634,68.988a.494.494,0,0,0,.024-.108,2.634,2.634,0,0,0,.2.3h0a4.451,4.451,0,0,0,4.954,1.751,8.737,8.737,0,0,0,1.691-.564,14.236,14.236,0,0,0,2-1.067c.18.12.36.228.552.348.06.036.12.1.216.156-.06.18-.108.348-.168.528-.084.276-.18.552-.276.816A13.884,13.884,0,0,1,31.2,74.241c-.072.108-.156.216-.24.324a9.875,9.875,0,0,1-1.151,1.3c-.084.084-.18.168-.276.252a9.61,9.61,0,0,1-1.9,1.331,14.864,14.864,0,0,1-1.4.648,1.067,1.067,0,0,1-1.583-.564,10.231,10.231,0,0,1-1.319-3.67c-.012-.1-.036-.2-.048-.3a11.342,11.342,0,0,1-.1-1.3,13.8,13.8,0,0,1,.3-2.711c.036-.168.072-.348.12-.516" transform="translate(-22.11 -65.493)" fill="url(#linear-gradient)"/>
        <path id="Path_242" data-name="Path 242" d="M24.977,80.262a1.86,1.86,0,0,1-.924-.912,12.789,12.789,0,0,1-1.607-4.462c-.024-.12-.036-.252-.048-.372a13.281,13.281,0,0,1-.108-1.571,15.655,15.655,0,0,1,.36-3.286c.036-.2.084-.408.144-.624a.072.072,0,0,1,.012-.048h0a.675.675,0,0,0,.024-.12,22.657,22.657,0,0,1,.8-2.375c.156-.4.252-.456.684-.432a18.408,18.408,0,0,1,4.222.66,14.927,14.927,0,0,1,3.514,1.463c.588.348,1.187.72,1.7,1.055.216.132.432.276.648.408.036.024.06.048.1.072a.552.552,0,0,1,.2.612l-.132.42c-.1.312-.216.66-.336.984h0a17.385,17.385,0,0,1-1.967,3.754l-.288.4a14.617,14.617,0,0,1-1.391,1.571c-.108.108-.216.2-.336.312a12.261,12.261,0,0,1-2.3,1.619,15.06,15.06,0,0,1-1.7.78,1.821,1.821,0,0,1-1.271.132Zm-.828-13.721a1.194,1.194,0,0,0-.048.132A22.829,22.829,0,0,0,23.322,69c0,.036-.024.072-.024.108v.06a4.588,4.588,0,0,0-.156.612,14.723,14.723,0,0,0-.36,3.178,12.447,12.447,0,0,0,.108,1.511c.012.12.036.24.048.36a12.021,12.021,0,0,0,1.547,4.282c.456.78.768.888,1.6.576a14.226,14.226,0,0,0,1.655-.756,11.754,11.754,0,0,0,2.219-1.559l.324-.288a12.57,12.57,0,0,0,1.343-1.511,4.45,4.45,0,0,0,.276-.384A16.568,16.568,0,0,0,33.8,71.554h0c.12-.324.228-.648.324-.96l.132-.42s0-.048-.024-.06-.048-.036-.072-.048c-.216-.132-.432-.276-.648-.408-.516-.324-1.1-.7-1.691-1.044A15.04,15.04,0,0,0,28.419,67.2a18.585,18.585,0,0,0-4.1-.648h-.156Z" transform="translate(-22.289 -66.056)" fill="#1a1a1a"/>
      </g>
    </g>
  </g>
</svg>
