<svg xmlns="http://www.w3.org/2000/svg" width="24" height="24" viewBox="0 0 24 24">
  <g id="moon-stars-fill" transform="translate(0 -0.001)">
    <path id="Path_31" data-name="Path 31" d="M9.2.417A1.132,1.132,0,0,1,9.323,1.7a10.627,10.627,0,0,0-1.346,5.19A11.072,11.072,0,0,0,19.2,17.81a11.519,11.519,0,0,0,2.351-.24,1.22,1.22,0,0,1,1.242.474,1.081,1.081,0,0,1-.048,1.34A12.915,12.915,0,0,1,12.8,24,12.62,12.62,0,0,1,0,11.565,12.441,12.441,0,0,1,7.857.09,1.17,1.17,0,0,1,9.2.417Z" transform="translate(0 0)" fill="#195da3"/>
    <path id="Path_32" data-name="Path 32" d="M10.794,3.148a.217.217,0,0,1,.412,0l.387,1.162a1.736,1.736,0,0,0,1.1,1.1l1.162.387a.217.217,0,0,1,0,.412l-1.162.387a1.734,1.734,0,0,0-1.1,1.1l-.387,1.162a.217.217,0,0,1-.412,0L10.407,7.69a1.734,1.734,0,0,0-1.1-1.1L8.148,6.206a.217.217,0,0,1,0-.412L9.31,5.407a1.734,1.734,0,0,0,1.1-1.1l.387-1.162ZM13.863.1a.145.145,0,0,1,.274,0L14.4.873a1.155,1.155,0,0,0,.732.732l.774.258a.145.145,0,0,1,0,.274l-.774.258a1.156,1.156,0,0,0-.732.732l-.258.774a.145.145,0,0,1-.274,0L13.6,3.127a1.156,1.156,0,0,0-.732-.732L12.1,2.137a.145.145,0,0,1,0-.274l.774-.258A1.155,1.155,0,0,0,13.6.873L13.863.1Z" transform="translate(8.001)" fill="#195da3"/>
  </g>
</svg>
