<svg xmlns="http://www.w3.org/2000/svg" width="136.743" height="181.553" viewBox="0 0 136.743 181.553">
  <g id="Group_183" data-name="Group 183" transform="translate(-101.257 -90.765)">
    <g id="Layer_1" data-name="Layer 1" transform="translate(101.257 90.765)">
      <g id="Group_54" data-name="Group 54" transform="translate(0 0)">
        <path id="Path_40" data-name="Path 40" d="M103.246,63.984C91.112,49.8,77.514,33.848,68.753,11.782,67.225,7.932,65.889,3.989,64.743,0c0,0-3.331,3.343-8.528,9.085C38.63,28.568,0,75.674,0,113.465s29,68.088,64.743,68.088,64.743-30.482,64.743-68.088c0-18.769-12.113-32.949-26.241-49.481ZM33.729,96.241l-7.87-4.289A128.772,128.772,0,0,1,44.294,62.024L50.509,68.8A119.479,119.479,0,0,0,33.729,96.241Z" transform="translate(0 0)" fill="#28abe2" fill-rule="evenodd"/>
      </g>
    </g>
    <text id="_105_L" data-name="105 L" transform="translate(114 188)" fill="#fff" font-size="40" font-family="Inter" font-weight="800"><tspan x="0" y="39">105 L</tspan></text>
  </g>
</svg>
