<svg id="Group_136" data-name="Group 136" xmlns="http://www.w3.org/2000/svg" xmlns:xlink="http://www.w3.org/1999/xlink" width="28.215" height="17.061" viewBox="0 0 28.215 17.061">
  <defs>
    <clipPath id="clip-path">
      <rect id="Rectangle_61" data-name="Rectangle 61" width="28.215" height="17.061" fill="#28abe2"/>
    </clipPath>
  </defs>
  <g id="Group_133" data-name="Group 133" clip-path="url(#clip-path)">
    <path id="Path_192" data-name="Path 192" d="M.967,8.767a.968.968,0,0,1-.75-1.578C3.986,2.55,8.971,0,14.261,0h.086C19.545.026,24.4,2.541,28,7.079a.968.968,0,1,1-1.515,1.2c-3.237-4.07-7.553-6.325-12.152-6.349C9.617,1.914,5.132,4.21,1.719,8.409a.965.965,0,0,1-.752.358" transform="translate(0 0.001)" fill="#28abe2"/>
    <path id="Path_193" data-name="Path 193" d="M36.944,54.9a.968.968,0,0,1-.764-1.561,11.763,11.763,0,0,1,9.237-4.91,11.783,11.783,0,0,1,9.28,4.826.968.968,0,0,1-1.517,1.2,9.887,9.887,0,0,0-7.706-4.093h-.046a9.871,9.871,0,0,0-7.717,4.161.966.966,0,0,1-.766.375" transform="translate(-31.334 -42.182)" fill="#28abe2"/>
    <path id="Path_194" data-name="Path 194" d="M65.5,98.282a.968.968,0,0,1-.808-1.5,7.009,7.009,0,0,1,5.683-3.525h.03c2.128.012,4.093,1.252,5.532,3.491a.968.968,0,1,1-1.629,1.047,4.882,4.882,0,0,0-3.914-2.6h-.02a5.072,5.072,0,0,0-4.065,2.654.967.967,0,0,1-.809.436" transform="translate(-56.204 -81.22)" fill="#28abe2"/>
  </g>
</svg>
