<svg xmlns="http://www.w3.org/2000/svg" xmlns:xlink="http://www.w3.org/1999/xlink" width="33.937" height="20.521" viewBox="0 0 33.937 20.521">
  <defs>
    <clipPath id="clip-path">
      <rect id="Rectangle_61" data-name="Rectangle 61" width="33.937" height="20.521" fill="#195da3"/>
    </clipPath>
  </defs>
  <g id="Group_133" data-name="Group 133" clip-path="url(#clip-path)">
    <path id="Path_192" data-name="Path 192" d="M1.163,10.545a1.164,1.164,0,0,1-.9-1.9C4.794,3.067,10.79,0,17.153,0h.1c6.252.033,12.085,3.057,16.427,8.516a1.164,1.164,0,1,1-1.822,1.449c-3.893-4.9-9.084-7.608-14.616-7.637C11.567,2.3,6.172,5.064,2.068,10.115a1.161,1.161,0,0,1-.9.43" transform="translate(0 0.001)" fill="#195da3"/>
    <path id="Path_193" data-name="Path 193" d="M37.14,56.216a1.164,1.164,0,0,1-.919-1.878,14.148,14.148,0,0,1,11.11-5.906,14.173,14.173,0,0,1,11.161,5.8,1.164,1.164,0,0,1-1.825,1.446A11.893,11.893,0,0,0,47.4,50.761h-.055a11.873,11.873,0,0,0-9.282,5,1.162,1.162,0,0,1-.921.451" transform="translate(-30.392 -40.914)" fill="#195da3"/>
    <path id="Path_194" data-name="Path 194" d="M65.7,99.3a1.164,1.164,0,0,1-.971-1.8c1.775-2.7,4.265-4.24,6.835-4.24H71.6c2.56.014,4.923,1.505,6.654,4.2a1.164,1.164,0,1,1-1.959,1.259c-1.29-2.009-2.962-3.12-4.708-3.13h-.024c-1.8,0-3.534,1.132-4.889,3.192a1.163,1.163,0,0,1-.973.524" transform="translate(-54.515 -78.779)" fill="#195da3"/>
  </g>
</svg>
